<svg width="14" height="14" viewBox="0 0 14 14" fill="#808080" xmlns="http://www.w3.org/2000/svg">
<path d="M2.89992 10.6956C3.46659 10.2623 4.09992 9.92063 4.79992 9.67063C5.49992 9.42063 6.23325 9.29563 6.99992 9.29563C7.76658 9.29563 8.49992 9.42063 9.19992 9.67063C9.89992 9.92063 10.5333 10.2623 11.0999 10.6956C11.4888 10.2401 11.7916 9.72341 12.0083 9.14563C12.2249 8.56786 12.3333 7.95119 12.3333 7.29563C12.3333 5.81786 11.8138 4.55952 10.7749 3.52063C9.73603 2.48175 8.4777 1.9623 6.99992 1.9623C5.52214 1.9623 4.26381 2.48175 3.22492 3.52063C2.18603 4.55952 1.66659 5.81786 1.66659 7.29563C1.66659 7.95119 1.77492 8.56786 1.99159 9.14563C2.20825 9.72341 2.51103 10.2401 2.89992 10.6956ZM6.99992 7.9623C6.34436 7.9623 5.79158 7.7373 5.34159 7.2873C4.89159 6.8373 4.66658 6.28452 4.66658 5.62897C4.66658 4.97341 4.89159 4.42063 5.34159 3.97063C5.79158 3.52063 6.34436 3.29563 6.99992 3.29563C7.65547 3.29563 8.20825 3.52063 8.65825 3.97063C9.10825 4.42063 9.33325 4.97341 9.33325 5.62897C9.33325 6.28452 9.10825 6.8373 8.65825 7.2873C8.20825 7.7373 7.65547 7.9623 6.99992 7.9623ZM6.99992 13.9623C6.0777 13.9623 5.21103 13.7873 4.39992 13.4373C3.58881 13.0873 2.88325 12.6123 2.28325 12.0123C1.68325 11.4123 1.20825 10.7067 0.858252 9.89563C0.508252 9.08452 0.333252 8.21786 0.333252 7.29563C0.333252 6.37341 0.508252 5.50674 0.858252 4.69563C1.20825 3.88452 1.68325 3.17897 2.28325 2.57897C2.88325 1.97897 3.58881 1.50397 4.39992 1.15397C5.21103 0.803967 6.0777 0.628967 6.99992 0.628967C7.92214 0.628967 8.78881 0.803967 9.59992 1.15397C10.411 1.50397 11.1166 1.97897 11.7166 2.57897C12.3166 3.17897 12.7916 3.88452 13.1416 4.69563C13.4916 5.50674 13.6666 6.37341 13.6666 7.29563C13.6666 8.21786 13.4916 9.08452 13.1416 9.89563C12.7916 10.7067 12.3166 11.4123 11.7166 12.0123C11.1166 12.6123 10.411 13.0873 9.59992 13.4373C8.78881 13.7873 7.92214 13.9623 6.99992 13.9623Z" fill="#808080"/>
</svg>
