<svg width="24" height="24" viewBox="0 0 24 24" fill="none" xmlns="http://www.w3.org/2000/svg">
<path d="M2.66667 24C1.93333 24 1.30556 23.7389 0.783333 23.2167C0.261111 22.6944 0 22.0667 0 21.3333V2.66667C0 1.93333 0.261111 1.30556 0.783333 0.783333C1.30556 0.261111 1.93333 0 2.66667 0H21.3333C22.0667 0 22.6944 0.261111 23.2167 0.783333C23.7389 1.30556 24 1.93333 24 2.66667V21.3333C24 22.0667 23.7389 22.6944 23.2167 23.2167C22.6944 23.7389 22.0667 24 21.3333 24H2.66667ZM4 12.7667L9.33333 7.43333L14.6667 12.7667L20 7.43333L21.3333 8.76667V2.66667H2.66667V11.4333L4 12.7667ZM2.66667 21.3333H21.3333V12.5333L20 11.2L14.6667 16.5333L9.33333 11.2L4 16.5333L2.66667 15.2V21.3333ZM2.66667 21.3333V12.5333V15.2V2.66667V21.3333Z" fill="black"/>
</svg>
