<svg width="12" height="14" viewBox="0 0 12 14" fill="#808080" xmlns="http://www.w3.org/2000/svg">
<path d="M1.33333 13.9623C0.966667 13.9623 0.652778 13.8317 0.391667 13.5706C0.130556 13.3095 0 12.9956 0 12.629V3.29563C0 2.92897 0.130556 2.61508 0.391667 2.35397C0.652778 2.09286 0.966667 1.9623 1.33333 1.9623H2V0.628967H3.33333V1.9623H8.66667V0.628967H10V1.9623H10.6667C11.0333 1.9623 11.3472 2.09286 11.6083 2.35397C11.8694 2.61508 12 2.92897 12 3.29563V12.629C12 12.9956 11.8694 13.3095 11.6083 13.5706C11.3472 13.8317 11.0333 13.9623 10.6667 13.9623H1.33333ZM1.33333 12.629H10.6667V5.9623H1.33333V12.629Z" fill="#808080"/>
</svg>
