<svg xmlns="http://www.w3.org/2000/svg" width="421.488" height="236.076" viewBox="0 0 421.488 236.076"><g transform="translate(0 -47.34)"><g transform="translate(0 47.34)"><g transform="translate(311.964 10.039)"><rect width="31.894" height="60.127" transform="translate(7.136)" fill="#e6e6e6"/><rect width="37.465" height="60.127" fill="#f0f0f0"/><rect width="26.058" height="49.446" transform="translate(5.694 5.341)" fill="#fff"/><rect width="10.131" height="19.218" transform="translate(13.983 20.088)" fill="#ebebeb"/></g><g transform="translate(62.416 10.039)"><rect width="31.894" height="60.127" transform="translate(7.136)" fill="#e6e6e6"/><rect width="37.465" height="60.127" fill="#f0f0f0"/><rect width="26.058" height="49.446" transform="translate(5.694 5.341)" fill="#fff"/><rect width="10.131" height="19.218" transform="translate(13.983 20.088)" fill="#ebebeb"/></g><g transform="translate(39.566)"><g transform="translate(117.058)"><g transform="translate(117.133)"><path d="M592,201.884H490.42a3.3,3.3,0,0,1-3.294-3.294V50.634a3.3,3.3,0,0,1,3.294-3.294H592a3.3,3.3,0,0,1,3.294,3.294V198.59A3.3,3.3,0,0,1,592,201.884ZM490.42,47.48a3.157,3.157,0,0,0-3.154,3.154V198.59a3.157,3.157,0,0,0,3.154,3.154H592a3.157,3.157,0,0,0,3.154-3.154V50.634A3.158,3.158,0,0,0,592,47.48Z" transform="translate(-487.126 -47.34)" fill="#e0e0e0"/></g><path d="M383.569,201.884H281.992a3.3,3.3,0,0,1-3.294-3.294V50.634a3.3,3.3,0,0,1,3.294-3.294H383.569a3.3,3.3,0,0,1,3.294,3.294V198.59A3.3,3.3,0,0,1,383.569,201.884ZM281.992,47.48a3.157,3.157,0,0,0-3.154,3.154V198.59a3.157,3.157,0,0,0,3.154,3.154H383.569a3.157,3.157,0,0,0,3.154-3.154V50.634a3.158,3.158,0,0,0-3.154-3.154Z" transform="translate(-278.698 -47.34)" fill="#e0e0e0"/></g><path d="M175.275,201.884H73.7A3.3,3.3,0,0,1,70.4,198.59V50.634A3.3,3.3,0,0,1,73.7,47.34H175.275a3.3,3.3,0,0,1,3.294,3.294V198.59A3.3,3.3,0,0,1,175.275,201.884ZM73.7,47.48a3.157,3.157,0,0,0-3.154,3.154V198.59a3.157,3.157,0,0,0,3.154,3.154H175.275a3.157,3.157,0,0,0,3.154-3.154V50.634a3.158,3.158,0,0,0-3.154-3.154Z" transform="translate(-70.404 -47.34)" fill="#e0e0e0"/></g><g transform="translate(0 188.864)"><rect width="421.488" height="0.067" fill="#e0e0e0"/></g><g transform="translate(22.842 198.182)"><rect width="31.319" height="0.237" transform="translate(344.486 7.192)" fill="#ebebeb"/><rect width="8.22" height="0.237" transform="translate(255.365 9.758)" fill="#ebebeb"/><rect width="40.842" height="0.237" fill="#ebebeb"/><rect width="5.989" height="0.237" transform="translate(49.26)" fill="#ebebeb"/><rect width="88.576" height="0.237" transform="translate(74.711 3.992)" fill="#ebebeb"/></g><path d="M233.233,101.456a20.017,20.017,0,0,0-2.861,6.933l-3.871.365v7.5l3.872.365a20.024,20.024,0,0,0,2.861,6.933l-2.473,2.986,5.3,5.3,2.986-2.472a20.015,20.015,0,0,0,6.932,2.861l.364,3.872h7.5l.365-3.871a20.026,20.026,0,0,0,6.933-2.861l2.986,2.472,5.3-5.3-2.472-2.986a20.036,20.036,0,0,0,2.86-6.932l3.871-.365v-7.5l-3.871-.365a20.031,20.031,0,0,0-2.861-6.932l2.472-2.986-5.3-5.3-2.986,2.472a20.017,20.017,0,0,0-6.932-2.861l-.365-3.872h-7.5l-.364,3.872a20.026,20.026,0,0,0-6.932,2.861l-2.987-2.473-5.3,5.3Zm24.037,3.869a10.149,10.149,0,1,1-14.353,0A10.15,10.15,0,0,1,257.27,105.325Z" transform="translate(-99.211 -65.548)" fill="#ebebeb"/><path d="M261.888,267.266a10.007,10.007,0,0,0-1.43,3.465l-1.935.182v3.747l1.935.182a10.011,10.011,0,0,0,1.43,3.465l-1.236,1.493,2.65,2.65,1.493-1.236a10,10,0,0,0,3.465,1.43l.182,1.935h3.747l.182-1.934a10.021,10.021,0,0,0,3.465-1.43l1.493,1.236,2.65-2.65-1.236-1.493a10.011,10.011,0,0,0,1.43-3.465l1.934-.182v-3.747l-1.935-.182a10.022,10.022,0,0,0-1.43-3.465l1.236-1.493-2.65-2.649-1.493,1.236a10,10,0,0,0-3.465-1.43L272.187,261H268.44l-.182,1.935a10.01,10.01,0,0,0-3.465,1.43l-1.493-1.236-2.65,2.65ZM273.9,269.2a5.072,5.072,0,1,1-7.173,0A5.072,5.072,0,0,1,273.9,269.2Z" transform="translate(-113.237 -140.925)" fill="#ebebeb"/><path d="M70.317,194.842a15.8,15.8,0,0,0-2.259,5.472L65,200.6v5.918l3.056.288a15.814,15.814,0,0,0,2.258,5.473l-1.952,2.358,4.185,4.185,2.358-1.952a15.8,15.8,0,0,0,5.472,2.258l.288,3.056h5.918l.288-3.056a15.811,15.811,0,0,0,5.473-2.259l2.358,1.952,4.185-4.185-1.952-2.358a15.822,15.822,0,0,0,2.258-5.472l3.055-.288V200.6l-3.056-.288a15.813,15.813,0,0,0-2.259-5.472l1.952-2.358L94.7,188.3l-2.358,1.952a15.812,15.812,0,0,0-5.472-2.259l-.288-3.056H80.667l-.288,3.056a15.807,15.807,0,0,0-5.472,2.258L72.55,188.3l-4.185,4.185ZM89.292,197.9a8.012,8.012,0,1,1-11.33,0A8.012,8.012,0,0,1,89.292,197.9Z" transform="translate(-28.472 -107.609)" fill="#ebebeb"/><path d="M644.95,177.43a7.4,7.4,0,0,0-1.057,2.561l-1.43.135v2.77l1.43.135a7.406,7.406,0,0,0,1.057,2.562l-.914,1.1,1.958,1.958,1.1-.913a7.4,7.4,0,0,0,2.561,1.057l.135,1.43h2.77l.135-1.43a7.4,7.4,0,0,0,2.561-1.057l1.1.913,1.958-1.958-.913-1.1a7.405,7.405,0,0,0,1.057-2.562l1.43-.135v-2.77l-1.43-.135a7.4,7.4,0,0,0-1.057-2.561l.913-1.1-1.958-1.959-1.1.914a7.407,7.407,0,0,0-2.561-1.057l-.135-1.43h-2.77l-.135,1.43a7.389,7.389,0,0,0-2.561,1.057l-1.1-.914-1.958,1.959Zm8.881,1.429a3.75,3.75,0,1,1-5.3,0A3.751,3.751,0,0,1,653.831,178.859Z" transform="translate(-281.409 -102.291)" fill="#ebebeb"/><path d="M457,115.787a7.4,7.4,0,0,0-1.057,2.561l-1.43.135v2.77l1.43.135A7.406,7.406,0,0,0,457,123.949l-.914,1.1,1.959,1.959,1.1-.914a7.408,7.408,0,0,0,2.561,1.057l.135,1.43h2.77l.135-1.43a7.406,7.406,0,0,0,2.562-1.057l1.1.914,1.958-1.959-.913-1.1a7.408,7.408,0,0,0,1.057-2.561l1.43-.135v-2.77l-1.43-.135a7.4,7.4,0,0,0-1.057-2.561l.913-1.1-1.958-1.959-1.1.914a7.408,7.408,0,0,0-2.561-1.057l-.135-1.43h-2.77l-.135,1.43a7.388,7.388,0,0,0-2.561,1.057l-1.1-.914-1.959,1.959Zm8.88,1.43a3.75,3.75,0,1,1-5.3,0A3.75,3.75,0,0,1,465.882,117.217Z" transform="translate(-199.084 -75.291)" fill="#f5f5f5"/><path d="M127.137,257.25a7.4,7.4,0,0,0-1.057,2.562l-1.43.135v2.77l1.43.135a7.407,7.407,0,0,0,1.057,2.562l-.914,1.1,1.959,1.958,1.1-.914a7.408,7.408,0,0,0,2.561,1.057l.135,1.43h2.77l.135-1.43a7.406,7.406,0,0,0,2.562-1.057l1.1.914,1.959-1.958-.914-1.1a7.407,7.407,0,0,0,1.057-2.561l1.43-.135v-2.77l-1.43-.135a7.4,7.4,0,0,0-1.057-2.561l.914-1.1-1.959-1.959-1.1.913a7.408,7.408,0,0,0-2.561-1.057l-.135-1.43h-2.77l-.135,1.43a7.388,7.388,0,0,0-2.561,1.057l-1.1-.914-1.959,1.958Zm8.881,1.43a3.75,3.75,0,1,1-5.3,0A3.75,3.75,0,0,1,136.018,258.68Z" transform="translate(-54.599 -137.253)" fill="#f5f5f5"/><path d="M571.663,194.714a12.708,12.708,0,0,0-1.816,4.4l-2.458.232v4.761l2.459.232a12.727,12.727,0,0,0,1.816,4.4l-1.57,1.9L573.46,214l1.9-1.57a12.711,12.711,0,0,0,4.4,1.816l.232,2.458h4.761l.232-2.458a12.722,12.722,0,0,0,4.4-1.816l1.9,1.57,3.366-3.366-1.57-1.9a12.722,12.722,0,0,0,1.816-4.4l2.458-.232v-4.761l-2.458-.232a12.711,12.711,0,0,0-1.817-4.4l1.57-1.9-3.366-3.366-1.9,1.57a12.717,12.717,0,0,0-4.4-1.817l-.232-2.458h-4.761l-.232,2.458a12.708,12.708,0,0,0-4.4,1.816l-1.9-1.57-3.366,3.366Zm15.263,2.457a6.444,6.444,0,1,1-9.114,0A6.445,6.445,0,0,1,586.926,197.171Z" transform="translate(-248.525 -108.402)" fill="#ebebeb"/><path d="M403.283,242.158a12.818,12.818,0,0,0-1.831,4.436l-2.477.233v4.8l2.478.233a12.807,12.807,0,0,0,1.831,4.436l-1.583,1.911,3.392,3.392L407,260.016a12.806,12.806,0,0,0,4.436,1.83l.233,2.478h4.8l.233-2.477a12.819,12.819,0,0,0,4.436-1.831l1.911,1.582,3.393-3.392-1.582-1.911a12.806,12.806,0,0,0,1.83-4.436l2.477-.233v-4.8l-2.477-.234a12.82,12.82,0,0,0-1.831-4.436l1.582-1.911-3.392-3.392-1.911,1.582a12.817,12.817,0,0,0-4.436-1.831l-.233-2.477h-4.8l-.233,2.477a12.813,12.813,0,0,0-4.436,1.831l-1.911-1.583-3.392,3.393Zm15.382,2.476a6.495,6.495,0,1,1-9.185,0A6.5,6.5,0,0,1,418.665,244.634Z" transform="translate(-174.757 -129.156)" fill="#ebebeb"/><path d="M426.026,318.38a21.506,21.506,0,0,0-3.072,7.445l-4.158.392v8.051l4.158.392a21.494,21.494,0,0,0,3.072,7.445l-2.655,3.207L429.063,351l3.207-2.655a21.494,21.494,0,0,0,7.445,3.072l.392,4.158h8.051l.392-4.157a21.513,21.513,0,0,0,7.445-3.072L459.2,351l5.693-5.693L462.24,342.1a21.514,21.514,0,0,0,3.072-7.445l4.157-.392v-8.051l-4.157-.392a21.512,21.512,0,0,0-3.072-7.444l2.655-3.207L459.2,309.48l-3.207,2.655a21.5,21.5,0,0,0-7.445-3.072l-.392-4.158h-8.051l-.392,4.158a21.493,21.493,0,0,0-7.445,3.072l-3.207-2.655-5.693,5.693Zm25.814,4.155a10.9,10.9,0,1,1-15.414,0A10.9,10.9,0,0,1,451.839,322.534Z" transform="translate(-183.439 -160.157)" fill="#ebebeb"/></g><g transform="translate(39.051 269.28)"><path d="M424.114,445.708c0,1.9-79.386,3.446-177.313,3.446s-177.313-1.543-177.313-3.446,79.386-3.446,177.313-3.446S424.114,443.8,424.114,445.708Z" transform="translate(-69.487 -442.262)" fill="#f5f5f5"/></g><g transform="translate(38.904 174.807)"><g transform="translate(16.51)"><path d="M108.987,274.156a44.733,44.733,0,0,0-7.492,44.418c6.388-5.7,10.886-14.391,11.17-21.992S110.96,281.5,108.987,274.156Z" transform="translate(-98.604 -274.156)" fill="#005885"/></g><g transform="translate(20.364 34.227)"><path d="M110.2,346.636a29.426,29.426,0,0,0-4.659,18.161c5.54-1.929,10.424-8.187,13.352-13.27s4.565-10.793,6.055-16.467A29.43,29.43,0,0,0,110.2,346.636Z" transform="translate(-105.462 -335.06)" fill="#005885"/></g><g transform="translate(17.625 20.786)"><path d="M106.79,311.291a169.446,169.446,0,0,0-6.2,45.5q.005,6.554.522,13.093c.021.269.443.271.421,0a169.014,169.014,0,0,1,2.665-45.864q1.256-6.364,3-12.618a.211.211,0,0,0-.407-.112Z" transform="translate(-100.588 -311.142)" fill="#263238"/></g><g transform="translate(17.839 40.512)"><path d="M101.392,374.708a140.017,140.017,0,0,1,16.127-28.16c.16-.22-.206-.43-.364-.213a144.154,144.154,0,0,0-13.22,21.739q-1.567,3.218-2.95,6.522c-.105.25.3.359.406.112Z" transform="translate(-100.968 -346.244)" fill="#263238"/></g><g transform="translate(0 44.454)"><path d="M81.523,362.909a24.537,24.537,0,0,1,3.885,15.143c-4.62-1.608-8.692-6.826-11.133-11.065s-3.807-9-5.049-13.73A24.538,24.538,0,0,1,81.523,362.909Z" transform="translate(-69.226 -353.257)" fill="#005885"/></g><g transform="translate(4.485 49.661)"><path d="M90.859,385.617a114.394,114.394,0,0,0-13.248-23c-.158-.217-.524-.007-.364.212a113.977,113.977,0,0,1,13.206,22.9c.1.247.512.138.406-.112Z" transform="translate(-77.207 -362.524)" fill="#263238"/></g><g transform="translate(17.941 55.134)"><path d="M101.509,392.609c6.519-6.707,13.176-13.279,19.695-19.985.189-.194-.108-.493-.3-.3-6.519,6.707-13.176,13.279-19.695,19.985-.189.194.108.493.3.3Z" transform="translate(-101.15 -372.262)" fill="#263238"/></g><g transform="translate(22.867 52.414)"><path d="M125.288,367.422a128.312,128.312,0,0,0-15.373,17.827h1.035a15.272,15.272,0,0,0,14.338-17.827Z" transform="translate(-109.915 -367.422)" fill="#005885"/></g><g transform="translate(3.755 19.354)"><g transform="translate(7.678 19.739)"><path d="M89.6,344.031q3.643,5.957,6.86,12.159c.125.241.489.028.364-.213q-3.215-6.2-6.86-12.159c-.142-.231-.506-.02-.364.213Z" transform="translate(-89.57 -343.718)" fill="#263238"/></g><path d="M77.762,308.594a70.726,70.726,0,0,0-1.854,13.921,17.9,17.9,0,0,0,3.779,11.477c2.465,2.907,7.441,4.18,9.447,2.517Z" transform="translate(-75.908 -308.594)" fill="#005885"/></g><rect width="24.707" height="4.579" transform="translate(5.482 77.417)" fill="#263238"/><path d="M101.694,435.556H86.352l-2.788-17.362H103.9Z" transform="translate(-75.506 -337.247)" fill="#263238"/><path d="M83.888,420.212h20.007l-.249,1.966H84.2Z" transform="translate(-75.648 -338.131)" opacity="0.2"/></g><g transform="translate(348.775 150.382)"><g transform="translate(1.625 1.166)"><path d="M630.063,234.489a13.019,13.019,0,1,1-1.779,21.366l-3.863.608.919-4.028c-.037-.062-.08-.119-.116-.182A13.018,13.018,0,0,1,630.063,234.489Z" transform="translate(-623.505 -232.769)" fill="#005885"/></g><path d="M631.983,230.694a12.905,12.905,0,0,0-9.377,7.763" transform="translate(-621.486 -230.694)" fill="none" stroke="#005885" stroke-linecap="round" stroke-linejoin="round" stroke-miterlimit="10" stroke-width="0.5"/><path d="M621.081,247.764a4.714,4.714,0,0,0-.468,1.865" transform="translate(-620.613 -238.171)" fill="none" stroke="#005885" stroke-linecap="round" stroke-linejoin="round" stroke-miterlimit="10" stroke-width="0.5"/><g transform="translate(7.624 9.559)"><path d="M639.675,257.253l-5.5-5.015,1.75-1.917,3.685,3.363,6.123-5.979,1.814,1.857Z" transform="translate(-634.18 -247.704)" fill="#fff"/></g></g><g transform="translate(216.035 66.575)"><g transform="translate(0 1.702)"><path d="M391.25,86.457a13.732,13.732,0,1,1-1.72,22.55l-4.07.669.94-4.255c-.039-.066-.085-.125-.124-.191A13.733,13.733,0,0,1,391.25,86.457Z" transform="translate(-384.414 -84.596)" fill="#005885"/></g><path d="M420.923,86.944A13.612,13.612,0,0,0,409.247,81.6" transform="translate(-395.291 -81.567)" fill="none" stroke="#005885" stroke-linecap="round" stroke-linejoin="round" stroke-miterlimit="10" stroke-width="0.5"/><path d="M404.075,82.016a4.963,4.963,0,0,0-1.987.411" transform="translate(-392.156 -81.764)" fill="none" stroke="#005885" stroke-linecap="round" stroke-linejoin="round" stroke-miterlimit="10" stroke-width="0.5"/><g transform="translate(6.862 11.936)"><rect width="12.827" height="3.207" transform="translate(0 1.527)" fill="#fff"/><path d="M417.339,109.285v-6.479l3.159,3.24Z" transform="translate(-405.697 -102.806)" fill="#fff"/></g></g><g transform="translate(236.445 83.684)"><g transform="translate(20.905)"><g transform="translate(0 66.011)"><path d="M514.581,231.481s-.341,5.886-3.216,16.2a163.631,163.631,0,0,1-6.553,18.742c-1.434,3.451-3.079,7.114-4.968,10.968-.85,1.752-1.76,3.534-2.715,5.362-1.1,31.218-18.62,62.952-18.62,62.952-.971.5-4.361-.046-4.339-1.031,2.594-4.119,7.7-44.12,10.99-63.1.2-2.579.5-5.309.864-8.2.963-7.66,2.389-15.988,3.792-23.315,2.177-11.544,4.247-20.592,4.247-20.592l5.772.561Z" transform="translate(-465.043 -229.472)" fill="#eec1bb"/><path d="M471.206,443.005h-.986l-.28-1.244-3.337,1.517h-8.457s-1.343-1.35,2.677-2.419a3.374,3.374,0,0,0,.569-.22c2.146-1.009,5.2-4.407,5.2-4.407h4.634a5.135,5.135,0,0,1,.379.675A5.861,5.861,0,0,1,471.206,443.005Z" transform="translate(-457.93 -320.037)" fill="#263238"/><path d="M474.3,435.843h0c-.607-.683-3.39,2.313-5.43,3.337-1.82.9-3.868,1.3-4.779.387,2.146-1.009,5.969-5.729,5.969-5.729l3.277.329S474.086,435.4,474.3,435.843Z" transform="translate(-460.628 -318.987)" fill="#eec1bb"/></g><g transform="translate(34.475 64.417)"><path d="M541.225,273.456h0q-.7,5.036-1.8,10.778c6.258,20.881-6.614,61.633-6.614,61.633-2.177.432-4.1.152-5.081-.584,2.427-12.279.683-44.2-1.206-63.279-.167-1.729-.379-3.633-.607-5.666-.387-3.443-.85-7.236-1.343-11.157-.835-6.561-1.767-13.463-2.609-19.583-1.031-7.4-1.926-13.652-2.389-16.8-.19-1.38-.3-2.161-.3-2.161l18.067,1.957s4.6,5.15,5.309,21.237A131.533,131.533,0,0,1,541.225,273.456Z" transform="translate(-519.274 -226.636)" fill="#eec1bb"/><path d="M533.809,443.005H532.8l-.28-1.244-3.33,1.517h-8.449s-1.343-1.35,2.685-2.419a3.354,3.354,0,0,0,.569-.22c2.139-1.009,5.2-4.407,5.2-4.407h4.634a6.633,6.633,0,0,1,.379.675A5.912,5.912,0,0,1,533.809,443.005Z" transform="translate(-519.822 -318.443)" fill="#263238"/><path d="M536.907,436.1h0c-.614-.683-3.4,2.313-5.438,3.337-1.82.9-3.868,1.3-4.771.387,2.139-1.009,5.514-5.4,5.514-5.4h3.724S536.687,435.66,536.907,436.1Z" transform="translate(-522.526 -317.65)" fill="#eec1bb"/></g><g transform="translate(22.558)"><g transform="translate(19.485 6.187)"><path d="M551.868,139.487c-.928-.8-2.427-.494-3.7-.644a5.87,5.87,0,0,1-4.331-3.214,16.8,16.8,0,0,1-1.373-5.1,11.624,11.624,0,0,0-1.744-4.984c-1.063-1.472-3.624-3.3-5.485-2.181l-2.492,3.861a116.962,116.962,0,0,1,3.641,13.768c.415,2.074.827,4.268,2.333,5.884a9.157,9.157,0,0,0,6.1,2.5,7.817,7.817,0,0,0,3.425-.43,3.522,3.522,0,0,0,2.2-2.288,2.275,2.275,0,0,0-1.409-2.6,7.261,7.261,0,0,0,2.822-1.736A2.047,2.047,0,0,0,551.868,139.487Z" transform="translate(-532.741 -123.02)" fill="#263238"/></g><path d="M500.988,115.588a8.976,8.976,0,0,0-2.755,8.281c.956,2.969,2.4,4.93,3.764,7.738l4.824-19.275C505,113.049,504.085,112.817,500.988,115.588Z" transform="translate(-498.07 -112.152)" fill="#263238"/><path d="M518.55,112.131c5.56.113,11.142,4.762,11.58,9.273s-4,10.333-4.833,10.69l-2.633.968s2.9-6.717,1.7-8.511-2.08-1.814-2.08-1.814Z" transform="translate(-507.041 -112.064)" fill="#263238"/><path d="M506.764,113.148c2.893-2.046,6.309-.876,8.337,0a9.233,9.233,0,0,1,4.428,6.133c.442,2.425.977,5.365-.262,6.9a3.989,3.989,0,0,1-2.836,1.519l-14.01-8.883A14.218,14.218,0,0,1,506.764,113.148Z" transform="translate(-499.975 -112.012)" fill="#263238"/><g transform="translate(2.472 1.723)"><path d="M517.393,160.169c1.1.783,1.88.312,3.018-.415,6.844-3.968,4.032-7.109,4.032-7.109-1.686-1.377-2.1-3.316-2.138-6.381a1.812,1.812,0,0,0-.037-.263,1.952,1.952,0,0,0-.566-1.037,2,2,0,0,0-2.822-.016l0,0-3.108,1.534h0c0,.047,0,.093,0,.146.287,1.628.564,2.881.733,3.876a2.489,2.489,0,0,0,.058.363h0a1.918,1.918,0,0,0,.052.369c.169,1.375-1.768,3.791-2.619,4.436C513.484,156.1,513.68,157.532,517.393,160.169Z" transform="translate(-507.426 -127.909)" fill="#eec1bb"/><path d="M517.328,146.4h0a.472.472,0,0,1,0,.152c.287,1.628.563,2.881.733,3.876a2.464,2.464,0,0,1,.058.363h0a2.85,2.85,0,0,1,.022.386h0a12.839,12.839,0,0,0,5.629-5.244h0a2.04,2.04,0,0,0-.537-1.036,2,2,0,0,0-2.824-.048Z" transform="translate(-508.976 -127.873)" opacity="0.2"/><path d="M517.772,121.651c.9,5.63,1.4,7.985-.711,11.514-3.179,5.3-10.118,5.307-12.666.086-2.254-4.708-3.365-13.1,1.453-16.638A7.471,7.471,0,0,1,517.772,121.651Z" transform="translate(-502.468 -115.077)" fill="#eec1bb"/><path d="M531.94,132.19a4.619,4.619,0,0,1-2.125,2.824c-1.367.765-2.763-1.388-2.66-2.993a3.054,3.054,0,0,1,2.8-2.809C531.438,129.115,532.336,130.688,531.94,132.19Z" transform="translate(-513.279 -121.267)" fill="#eec1bb"/><path d="M529.986,133.571a2.086,2.086,0,0,1,1.629-2.454" transform="translate(-514.504 -122.103)" fill="none" stroke="#000" stroke-linecap="round" stroke-linejoin="round" stroke-miterlimit="10" stroke-width="0.5" opacity="0.2"/><g transform="translate(0.167 7.121)"><path d="M516.428,132.736c.131.593-.056,1.161-.418,1.267s-.763-.289-.894-.882.056-1.161.418-1.267S516.3,132.142,516.428,132.736Z" transform="translate(-508.157 -129.539)" fill="#263238"/><path d="M506.7,135.365c.126.575-.064,1.128-.425,1.234s-.756-.275-.883-.85.064-1.128.425-1.234S506.576,134.789,506.7,135.365Z" transform="translate(-503.9 -130.705)" fill="#263238"/><path d="M516.546,128.59a.257.257,0,0,1-.214-.01,2.07,2.07,0,0,0-1.964-.015.259.259,0,0,1-.369-.1.307.307,0,0,1,.11-.4,2.585,2.585,0,0,1,2.483-.01.288.288,0,0,1,.11.386A.3.3,0,0,1,516.546,128.59Z" transform="translate(-507.671 -127.749)" fill="#263238"/><path d="M502.977,130.982a.214.214,0,0,1-.16-.087.309.309,0,0,1,.041-.393,2.369,2.369,0,0,1,2.205-.755.26.26,0,0,1,.155.336.269.269,0,0,1-.312.205,1.9,1.9,0,0,0-1.741.619A.252.252,0,0,1,502.977,130.982Z" transform="translate(-502.765 -128.605)" fill="#263238"/><path d="M509.517,134.844a19.472,19.472,0,0,1-.933,3.866.443.443,0,0,0,.378.6,2.843,2.843,0,0,0,1.492-.378Z" transform="translate(-505.3 -130.857)" fill="#d4827d"/><path d="M515.221,131.809l-1.353.044S514.821,132.613,515.221,131.809Z" transform="translate(-507.628 -129.527)" fill="#263238"/><path d="M505.366,134.489l-1.353.044S504.966,135.293,505.366,134.489Z" transform="translate(-503.312 -130.701)" fill="#263238"/></g></g><path d="M515.39,123.086s-3.87-3.076-4.54-6.189c0,0-11.924-.455-9.065,9.244,0,0-4.036-8.1,5.074-11.2s13.269,8.775,9.8,13.81C516.636,128.706,517.79,125.018,515.39,123.086Z" transform="translate(-499.307 -113.07)" fill="#263238"/><path d="M503.122,116.663a8.167,8.167,0,0,0-1.548,4.838c.222,1.22,2.044,1.8,2.044,1.8l1.544-3.03.426,2.337a7.516,7.516,0,0,0,5.528-5.836l-2.454-2.97S504.051,115.507,503.122,116.663Z" transform="translate(-499.605 -112.796)" fill="#263238"/><path d="M516.072,142.847a1.215,1.215,0,0,0,1.4-1.365" transform="translate(-505.955 -124.921)" fill="none" stroke="#263238" stroke-linecap="round" stroke-linejoin="round" stroke-miterlimit="10" stroke-width="0.5"/><path d="M535.841,133.139s4.2-5.213.912-9.655a4.882,4.882,0,0,1,1.964,4.547A7.316,7.316,0,0,1,535.841,133.139Z" transform="translate(-514.614 -117.037)" opacity="0.2"/></g><path d="M530.714,288.229h0a56.025,56.025,0,0,1-15.306,2.882c-.387-3.443-.85-7.236-1.343-11.157-1.434,3.451-3.079,7.114-4.968,10.968a37.8,37.8,0,0,1-13.819-4c.963-7.66,2.389-15.988,3.792-23.315a22.6,22.6,0,0,1,6.144-2.48,27.326,27.326,0,0,1,6.265-.759,47.907,47.907,0,0,1,9.162.842,57.766,57.766,0,0,1,11.445,3.4A131.559,131.559,0,0,1,530.714,288.229Z" transform="translate(-474.289 -176.992)" opacity="0.2"/><path d="M502.329,226.636H526.32l.652,3.094s8.814,12.2,4.346,42.611c0,0-19.3,2.23-37.483-1.669,0,0,4.081-31.249,8.343-41.45Z" transform="translate(-473.657 -162.219)" fill="#263238"/><g transform="translate(22.728 25.507)"><path d="M527.1,186.878l1.706,12.758-26.3-1.06c-.069-2.741,2.375-10.014,2.093-12-.8-2.457-4.838-6.165-5.914-9.133-1.147-4.122,1.221-15.456,1.993-15.816.936-.436,2.1-.4,2.821-.712,2.791-.657,9.142-2.925,11.988-3.279.551-.052,1.1-.151,1.642-.214,0,0,10.76-.518,11.237,3.86A96.456,96.456,0,0,0,527.1,186.878Z" transform="translate(-498.373 -157.399)" fill="#005885"/><path d="M540.56,193.854l-.214-3.494-3.987-10.855,3.124,12.78-9.9,3.467Z" transform="translate(-512.045 -167.082)" opacity="0.2"/><path d="M528.732,220.324a37.071,37.071,0,0,0,3.475-3.438l8.933.338-.432-3.23c.265-.209-10.438.279-10.438.279l-1.538,3.334v2.717Z" transform="translate(-511.67 -182.166)" opacity="0.2"/><path d="M538.191,159.186c.46.057,2.331-1,5.708,3.335s7.162,20.87,7.375,23.282a4.316,4.316,0,0,1-3.806,4.91c-6.108,1.008-17.38,1.212-17.38,1.212v-5.193l11.247-2.546s-6.383-15.366-5.375-19.325A18.372,18.372,0,0,1,538.191,159.186Z" transform="translate(-512.264 -158.149)" fill="#005885"/></g><path d="M523.669,157.369a11.43,11.43,0,0,1-8.461,9c-1.525.366-3.229-.477-4.434-1.476a6.616,6.616,0,0,1-2.291-4.015C513.777,158.79,518.572,157,523.669,157.369Z" transform="translate(-480.073 -131.858)" fill="#eec1bb"/><path d="M549.905,203.2s1.828-.1,2.6.893a2.284,2.284,0,0,0-2.855-1.509Z" transform="translate(-498.106 -151.662)" opacity="0.2"/></g><g transform="translate(0 26.959)"><path d="M478.555,217.887V159.982H420.732v23.136a13.1,13.1,0,0,0,5.514.273c1.825-.68.634-2.783,2.4-3.612,2.6-1.224,5.838.5,7.2,3.031a10.058,10.058,0,0,1,0,9.372c-1.363,2.53-4.6,4.255-7.2,3.031-1.762-.829-.329-2.88-2.154-3.56a14.229,14.229,0,0,0-5.756.22v26.017h25.857a4.1,4.1,0,0,1-.233,1.665c-.68,1.825-2.62,2.911-3.449,4.673-1.224,2.6.5,5.838,3.031,7.2a10.058,10.058,0,0,0,9.372,0c2.53-1.363,4.255-4.6,3.031-7.2-.83-1.762-2.769-2.848-3.449-4.673a4.1,4.1,0,0,1-.233-1.665h23.9Z" transform="translate(-420.732 -159.982)" fill="#005885"/><g transform="translate(2.871)"><path d="M483.664,217.887V159.982H425.84v23.136a4.6,4.6,0,0,0,3.237.11c1.825-.68,2.911-2.62,4.673-3.449,2.6-1.224,5.838.5,7.2,3.031a10.058,10.058,0,0,1,0,9.372c-1.363,2.53-4.6,4.255-7.2,3.031-1.762-.829-2.848-2.769-4.673-3.449a4.6,4.6,0,0,0-3.237.11v26.016H451.7a4.1,4.1,0,0,1-.233,1.665c-.68,1.825-2.62,2.911-3.449,4.673-1.224,2.6.5,5.838,3.031,7.2a10.058,10.058,0,0,0,9.372,0c2.529-1.363,4.255-4.6,3.031-7.2-.829-1.762-2.769-2.848-3.449-4.673a4.1,4.1,0,0,1-.233-1.665h23.9Z" transform="translate(-425.84 -159.982)" fill="#005885"/><g opacity="0.3"><path d="M483.664,217.887V159.982H425.84v23.136a4.6,4.6,0,0,0,3.237.11c1.825-.68,2.911-2.62,4.673-3.449,2.6-1.224,5.838.5,7.2,3.031a10.058,10.058,0,0,1,0,9.372c-1.363,2.53-4.6,4.255-7.2,3.031-1.762-.829-2.848-2.769-4.673-3.449a4.6,4.6,0,0,0-3.237.11v26.016H451.7a4.1,4.1,0,0,1-.233,1.665c-.68,1.825-2.62,2.911-3.449,4.673-1.224,2.6.5,5.838,3.031,7.2a10.058,10.058,0,0,0,9.372,0c2.529-1.363,4.255-4.6,3.031-7.2-.829-1.762-2.769-2.848-3.449-4.673a4.1,4.1,0,0,1-.233-1.665h23.9Z" transform="translate(-425.84 -159.982)" fill="#fff"/></g><g transform="translate(52.936 25.066)"><path d="M524.923,207.665s-3.881.97-4.307,1.883,1.011.844,1.011.844-1.575.174-1.591.853c-.02.815,1.484.734,1.484.734s-1.28.2-1.254.8c.027.627,1.731.658,1.731.658s-.875.308-.62.718,3.872.545,4.936-.132,1.069-5.323.862-6.336-.977-1.561-2.25-3.1v3.08Z" transform="translate(-520.036 -204.585)" fill="#eec1bb"/><g transform="translate(1.525 5.295)"><path d="M522.819,214.594h.007l2.732-.435a.075.075,0,0,0,.056-.086.071.071,0,0,0-.076-.065l-2.732.435a.075.075,0,0,0-.056.086A.07.07,0,0,0,522.819,214.594Z" transform="translate(-522.749 -214.007)" opacity="0.2"/></g><g transform="translate(1.495 7.105)"><path d="M522.767,217.589h0l2.657-.209a.077.077,0,0,0-.011-.152l-2.657.209a.072.072,0,0,0-.061.081A.071.071,0,0,0,522.767,217.589Z" transform="translate(-522.695 -217.228)" opacity="0.2"/></g><g transform="translate(1.984 8.671)"><path d="M523.637,220.266l1.979-.1a.077.077,0,0,0-.007-.152l-1.979.1a.077.077,0,0,0,.007.152Z" transform="translate(-523.567 -220.015)" opacity="0.2"/></g></g></g><g transform="translate(14.228 24.44)"><path d="M448.132,205.644s4.157,1.162,4.582,2.075-1.011.844-1.011.844,1.575.174,1.592.853c.02.815-1.484.735-1.484.735s1.28.194,1.254.8c-.027.627-1.731.658-1.731.658s.876.307.62.718-3.872.545-4.936-.132-1.069-5.323-.862-6.336.292-.846,1.566-2.386l.232.862a4.121,4.121,0,0,1,.126.715Z" transform="translate(-446.049 -203.47)" fill="#eec1bb"/><g transform="translate(2.854 4.58)"><path d="M453.924,212.208h-.007l-2.732-.435a.075.075,0,0,1-.056-.086.071.071,0,0,1,.076-.065l2.732.435a.075.075,0,0,1,.056.086A.071.071,0,0,1,453.924,212.208Z" transform="translate(-451.129 -211.621)" opacity="0.2"/></g><g transform="translate(2.959 6.391)"><path d="M454.035,215.2h0l-2.657-.209a.077.077,0,0,1,.011-.152l2.657.209a.077.077,0,0,1-.01.152Z" transform="translate(-451.314 -214.843)" opacity="0.2"/></g><g transform="translate(3.148 7.957)"><path d="M453.693,217.88l-1.979-.1a.077.077,0,0,1,.007-.152l1.979.1a.073.073,0,0,1,.064.08A.072.072,0,0,1,453.693,217.88Z" transform="translate(-451.651 -217.629)" opacity="0.2"/></g></g></g></g><g transform="translate(164.904 77.467)"><g transform="translate(0 173.801)"><path d="M298.181,425.13l5.738.562,4.242-14.53-8.731-.95Z" transform="translate(-295.512 -410.212)" fill="#eec1bb"/><g transform="translate(0 12.008)"><path d="M302.671,433.248h-2.049a1.453,1.453,0,0,0-1.166.609c-1.182,1.613-2.07,1-3.354-.513-.817-.1-1.037.842-1.1,1.094l-1.532,5.572a.876.876,0,0,0,.856,1.117h16.233c2.582,0,3.117-2.6,2.053-2.842-4.783-1.057-8.169-2.464-9.647-3.855C302.687,434.185,302.969,434,302.671,433.248Z" transform="translate(-293.431 -432.31)" fill="#263238"/><path d="M315.144,435.184a.836.836,0,0,0,.348-.669.375.375,0,0,0-.167-.361c-.642-.455-3.2.742-3.492.883a.112.112,0,0,0-.069.069.114.114,0,0,0,.069.146,9.286,9.286,0,0,0,1.92.247A2.281,2.281,0,0,0,315.144,435.184Zm.02-.836a.147.147,0,0,1,.067.154.669.669,0,0,1-.254.488c-.582.435-1.987.247-2.742.107C313.3,434.629,314.81,434.1,315.164,434.348Z" transform="translate(-301.459 -432.662)" fill="#005885"/><path d="M311.907,434.195c.769-.321,2.381-1.585,2.294-2.254-.013-.14-.114-.307-.461-.355-1.4-.161-2.007,2.361-2.007,2.468a.113.113,0,0,0,.034.12.14.14,0,0,0,.08,0Zm1.785-2.4c.261.027.261.12.261.154.074.408-1.1,1.458-1.933,1.9.174-.588.689-2.06,1.579-2.06Z" transform="translate(-301.445 -431.579)" fill="#005885"/><path d="M311.047,436.062a2.483,2.483,0,0,0-1.74,1.121" transform="translate(-300.385 -433.543)" fill="none" stroke="#005885" stroke-linecap="round" stroke-linejoin="round" stroke-miterlimit="10" stroke-width="0.5"/><path d="M313.313,437.767a2.482,2.482,0,0,0-1.74,1.121" transform="translate(-301.378 -434.289)" fill="none" stroke="#005885" stroke-linecap="round" stroke-linejoin="round" stroke-miterlimit="10" stroke-width="0.5"/><path d="M316.132,439.2a2.483,2.483,0,0,0-1.74,1.121" transform="translate(-302.612 -434.918)" fill="none" stroke="#005885" stroke-linecap="round" stroke-linejoin="round" stroke-miterlimit="10" stroke-width="0.5"/></g><path d="M306.281,425.009l-.52,1.782-6.754-1.037.123-1.461Z" transform="translate(-295.874 -416.38)" opacity="0.3"/></g><g transform="translate(33.406 173.801)"><path d="M357.625,425.13l5.739.562,4.241-14.53-8.73-.95Z" transform="translate(-354.955 -410.212)" fill="#eec1bb"/><g transform="translate(0 12.008)"><path d="M362.114,433.248h-2.049a1.455,1.455,0,0,0-1.167.609c-1.181,1.613-2.069,1-3.354-.513-.817-.1-1.037.842-1.1,1.094l-1.532,5.572a.876.876,0,0,0,.856,1.117H370c2.582,0,3.117-2.6,2.053-2.842-4.782-1.057-8.169-2.464-9.647-3.855C362.131,434.185,362.412,434,362.114,433.248Z" transform="translate(-352.874 -432.31)" fill="#263238"/><path d="M374.589,435.184a.836.836,0,0,0,.348-.669.374.374,0,0,0-.167-.361c-.642-.455-3.2.742-3.492.883a.112.112,0,0,0-.069.069.114.114,0,0,0,.069.146,9.285,9.285,0,0,0,1.92.247A2.283,2.283,0,0,0,374.589,435.184Zm.02-.836a.147.147,0,0,1,.067.154.67.67,0,0,1-.254.488c-.582.435-1.987.247-2.742.107C372.742,434.629,374.254,434.1,374.608,434.348Z" transform="translate(-360.902 -432.662)" fill="#005885"/><path d="M371.351,434.195c.769-.321,2.381-1.585,2.294-2.254-.014-.14-.114-.307-.461-.355-1.4-.161-2.007,2.361-2.007,2.468a.113.113,0,0,0,.034.12.14.14,0,0,0,.08,0Zm1.786-2.4c.261.027.261.12.261.154.074.408-1.1,1.458-1.933,1.9.174-.588.689-2.06,1.579-2.06Z" transform="translate(-360.889 -431.579)" fill="#005885"/><path d="M370.491,436.062a2.483,2.483,0,0,0-1.74,1.121" transform="translate(-359.829 -433.543)" fill="none" stroke="#005885" stroke-linecap="round" stroke-linejoin="round" stroke-miterlimit="10" stroke-width="0.5"/><path d="M372.757,437.767a2.482,2.482,0,0,0-1.74,1.121" transform="translate(-360.821 -434.289)" fill="none" stroke="#005885" stroke-linecap="round" stroke-linejoin="round" stroke-miterlimit="10" stroke-width="0.5"/><path d="M375.576,439.2a2.483,2.483,0,0,0-1.74,1.121" transform="translate(-362.056 -434.918)" fill="none" stroke="#005885" stroke-linecap="round" stroke-linejoin="round" stroke-miterlimit="10" stroke-width="0.5"/></g><path d="M365.726,425.009l-.52,1.782-6.754-1.037.122-1.461Z" transform="translate(-355.317 -416.38)" opacity="0.3"/></g><g transform="translate(2.535 73.189)"><g transform="translate(23.529 6.037)"><path d="M362.089,241.924s4.757,21.005,7.024,39.3c.691,5.577.823,13.034-.4,18.524l-9.168,45.579-11.537-1.155c1.813-19.657,4.34-43.9,5.063-54.216-2.538-12.088-7.945-26.72-13.262-41.272Z" transform="translate(-339.811 -241.924)" fill="#005885"/></g><g transform="translate(23.529 6.037)" opacity="0.2"><path d="M362.089,241.924s4.757,21.005,7.024,39.3c.691,5.577.823,13.034-.4,18.524l-9.168,45.579-11.537-1.155c1.813-19.657,4.34-43.9,5.063-54.216-2.538-12.088-7.945-26.72-13.262-41.272Z" transform="translate(-339.811 -241.924)"/></g><path d="M305.841,288.921c.261-1.137.678-3.446,1.189-6.491l-.048-.011c.375-4.028,1.068-22.709,2.342-34.624.979-7.59,2.919-12.726,4.872-15.24.1-.129.193-.247.277-.351.324-.405.522-.628.522-.628q.557.139,1.108.26l.41.088a58.53,58.53,0,0,0,25.925-.741c1.27,3.135,2.218,9.82,3.144,16.752-1.443,1.583-7.773,3.637-15.035,5l-2.071,9.366c-1.09,5.807-2.489,11.5-3.678,16.631l-1.242,5.617c-.075.369-.149.734-.22,1.092-.63,3.229-15.624,55.257-15.624,55.257l-9.769-.572S302.308,304.314,305.841,288.921Z" transform="translate(-297.943 -231.182)" fill="#005885"/><path d="M305.841,288.921c.261-1.137.678-3.446,1.189-6.491l-.048-.011c.375-4.028,1.068-22.709,2.342-34.624.979-7.59,2.919-12.726,4.872-15.24.1-.129.193-.247.277-.351.324-.405.522-.628.522-.628q.557.139,1.108.26l.41.088a58.53,58.53,0,0,0,25.925-.741c1.27,3.135,2.218,9.82,3.144,16.752-1.443,1.583-7.773,3.637-15.035,5l-2.071,9.366c-1.09,5.807-2.489,11.5-3.678,16.631l-1.242,5.617c-.075.369-.149.734-.22,1.092-.63,3.229-15.624,55.257-15.624,55.257l-9.769-.572S302.308,304.314,305.841,288.921Z" transform="translate(-297.943 -231.182)" opacity="0.2"/><path d="M352.037,275.457c-.038.191,4.474-16.209,4.474-16.209s3.8,14.642-1.982,23.8Z" transform="translate(-321.637 -243.475)" opacity="0.2"/></g><g transform="translate(20.032)"><path d="M334.762,146.632s2.294,1.764,5.248,4.31a10.944,10.944,0,0,0,2.01,1.37c1.936,1.028,3.7,1.616,4.178.683a3.152,3.152,0,0,0,.248-.66c.406-1.563.239-3.76-1.024-4.765-1.424-1.134-2.111-2.1-1.854-3.638a11.515,11.515,0,0,1,.818-2.641l-1.121-1.311-5.862-5.916C337.551,138.014,337.85,144.488,334.762,146.632Z" transform="translate(-331.567 -115.454)" fill="#eec1bb"/><path d="M347.866,147.112c-1.612-.957-3.381-2.617-3.169-4.514a8.883,8.883,0,0,1,.458-2.041l3.275,4.336A10.918,10.918,0,0,0,347.866,147.112Z" transform="translate(-335.911 -118.298)" opacity="0.2"/><path d="M336.481,116.032c.552,6.023.658,8.577,3.766,11.735,4.675,4.75,11.867,3.152,13.106-2.818,1.114-5.374.025-14.32-5.888-16.852A7.748,7.748,0,0,0,336.481,116.032Z" transform="translate(-332.304 -103.769)" fill="#eec1bb"/><path d="M349.858,125.366c.031.564.378,1.028.774,1.036s.692-.442.66-1.006-.378-1.028-.774-1.036S349.827,124.8,349.858,125.366Z" transform="translate(-338.178 -111.203)" fill="#263238"/><path d="M360.965,125.238c.031.546.378,1,.772,1s.69-.428.658-.974-.378-1-.772-1S360.933,124.692,360.965,125.238Z" transform="translate(-343.043 -111.161)" fill="#263238"/><path d="M347.938,121.318a.268.268,0,0,0,.214-.069,2.174,2.174,0,0,1,1.985-.554.271.271,0,0,0,.347-.2.322.322,0,0,0-.22-.371,2.71,2.71,0,0,0-2.517.67.3.3,0,0,0-.005.42A.311.311,0,0,0,347.938,121.318Z" transform="translate(-337.216 -109.313)" fill="#263238"/><path d="M362.607,120.252a.272.272,0,0,0,.211-.032.293.293,0,0,0,.078-.407,3.106,3.106,0,0,0-2.3-1.515.27.27,0,0,0-.285.282.321.321,0,0,0,.3.313,2.483,2.483,0,0,1,1.809,1.219A.311.311,0,0,0,362.607,120.252Z" transform="translate(-342.758 -108.548)" fill="#263238"/><path d="M335.821,119.427s1.858-2.809,1.092-8.28a1.73,1.73,0,0,1,1.361-1.962c2.6-.5,6.073-3.783,10.311,2.728,0,0-2.021-7.8-13.857-4.657-10.533,2.8-3.321,11.723-2.235,12.641S335.821,119.427,335.821,119.427Z" transform="translate(-329.077 -103.385)" fill="#263238"/><path d="M332.962,128.684a4.847,4.847,0,0,0,2.927,2.277c1.594.4,2.418-2.164,1.873-3.761a3.2,3.2,0,0,0-3.608-2.076C332.626,125.432,332.148,127.271,332.962,128.684Z" transform="translate(-330.607 -111.511)" fill="#eec1bb"/><g transform="translate(11.908 18.138)"><path d="M354.761,135.047a17.064,17.064,0,0,0-1.08,2.217c-.142-.03-.284-.059-.424-.1-1.917-.449-2.659-1.29-2.9-2.088a2.538,2.538,0,0,1-.039-1.2,2.468,2.468,0,0,1,.211-.655,9.288,9.288,0,0,0,3.58,1.659C354.506,135,354.761,135.047,354.761,135.047Z" transform="translate(-350.265 -133.224)" fill="#263238"/><path d="M354.151,134.885l-.335.646c-1.805-.427-3.018-.97-3.456-1.65a2.467,2.467,0,0,1,.211-.655A9.3,9.3,0,0,0,354.151,134.885Z" transform="translate(-350.307 -133.225)" fill="#fff"/><path d="M353.328,138.616c-1.917-.449-2.659-1.29-2.9-2.088a6.336,6.336,0,0,1,2.03.921A2.373,2.373,0,0,1,353.328,138.616Z" transform="translate(-350.337 -134.671)" fill="#dc5753"/></g><path d="M358.086,125.7a20.454,20.454,0,0,0,2.005,3.66.465.465,0,0,1-.218.71,2.98,2.98,0,0,1-1.614.026Z" transform="translate(-341.783 -111.792)" fill="#d4827d"/><path d="M350.82,124.082l1.382-.327S351.447,124.786,350.82,124.082Z" transform="translate(-338.601 -110.938)" fill="#263238"/><path d="M361.884,124.036l1.382-.327S362.511,124.74,361.884,124.036Z" transform="translate(-343.447 -110.918)" fill="#263238"/><g transform="translate(3.374)"><path d="M352.269,112.024s3.648-4.315,1.214-7.872c-.914-1.337-2.594-1.536-4.076-2.189-3.42-1.507-6.191-1.811-10.556,2.467-4.541,4.45-5.362,5.949-.354,11.432,0,0-.541-.717,1.311-2.348s3.9-3.082,2.9-4.664a2.658,2.658,0,0,1,1.649,2.059l2.708-.74a5.126,5.126,0,0,0-.834-2.094,4.833,4.833,0,0,1,1.859,2.039l2.342.441a8.128,8.128,0,0,0-1.005-2.921A13.691,13.691,0,0,1,352.269,112.024Z" transform="translate(-335.08 -100.948)" fill="#263238"/></g></g><path d="M337.866,129.508a2.367,2.367,0,0,0-2.271-2.158" transform="translate(-311.9 -112.513)" fill="none" stroke="#000" stroke-linecap="round" stroke-linejoin="round" stroke-miterlimit="10" stroke-width="0.5" opacity="0.2"/><g transform="translate(11.46 28.31)"><g transform="translate(0 2.397)"><path d="M376.046,194.4a8.663,8.663,0,0,1-.962-.864c-.256-.268-.434-.614-.372-.614a1.156,1.156,0,0,0-.047-.112l-.108-.251-.264-.674c-.178-.484-.349-1.012-.519-1.547-.357-1.063-.69-2.17-1.016-3.285-.659-2.239-1.287-4.5-1.923-6.777l-1.167-4.766c-.169-.772-.43-1.9-.778-3.181v0h0c-.949-3.5-2.533-8.17-4.606-10.027-3.217-2.462-5.271.575-6.595,3.732-1.271,3.03,1.866,11.311,1.866,11.311l3.822-.277c.483,1.762.99,3.515,1.489,5.3.651,2.334,1.426,4.625,2.2,6.915.4,1.15.806,2.3,1.256,3.458.264.588.5,1.167.776,1.781.132.3.279.623.442.942l.287.536a5.451,5.451,0,0,0,.4.64,6.324,6.324,0,0,0,2.047,1.729,8.73,8.73,0,0,0,1.892.787,11.391,11.391,0,0,0,3.652.441l.69-3.337C377.69,195.648,376.783,195.008,376.046,194.4Z" transform="translate(-332.905 -158.135)" fill="#263238"/><path d="M376.046,194.4a8.663,8.663,0,0,1-.962-.864c-.256-.268-.434-.614-.372-.614a1.156,1.156,0,0,0-.047-.112l-.108-.251-.264-.674c-.178-.484-.349-1.012-.519-1.547-.357-1.063-.69-2.17-1.016-3.285-.659-2.239-1.287-4.5-1.923-6.777l-1.167-4.766c-.169-.772-.43-1.9-.778-3.181v0h0c-.949-3.5-2.533-8.17-4.606-10.027-3.217-2.462-5.271.575-6.595,3.732-1.271,3.03,1.866,11.311,1.866,11.311l3.822-.277c.483,1.762.99,3.515,1.489,5.3.651,2.334,1.426,4.625,2.2,6.915.4,1.15.806,2.3,1.256,3.458.264.588.5,1.167.776,1.781.132.3.279.623.442.942l.287.536a5.451,5.451,0,0,0,.4.64,6.324,6.324,0,0,0,2.047,1.729,8.73,8.73,0,0,0,1.892.787,11.391,11.391,0,0,0,3.652.441l.69-3.337C377.69,195.648,376.783,195.008,376.046,194.4Z" transform="translate(-332.905 -158.135)" fill="#fff" opacity="0.5"/><g transform="translate(31.904 9.544)" opacity="0.3"><path d="M370.776,172.572a12.372,12.372,0,0,1,1.272,3c.4,1.271.863,8.133-1.454,10.162v-4.758C370.678,178.062,370.691,175.487,370.776,172.572Z" transform="translate(-370.594 -172.572)"/></g><path d="M317.411,173.812l-3.588-12.233c2.27-3.387,13.5-5.99,13.5-5.99l5.755,2.02,1.643-1.615s2.844.634,5.278,1.429c3.25,1.06,5.008,1.912,5.782,3.716,0,0,1.356,4,.541,12.229a134.333,134.333,0,0,0,.662,17.924l3.829,12.121c-13.518,10.528-32.441.7-32.441.7.607-1.859,2.632-7.567,2.907-9.383-.2-2.318.078-5.892-.9-9.95C320.186,183.991,317.739,174.573,317.411,173.812Z" transform="translate(-313.823 -155.589)" fill="#263238"/><path d="M317.411,173.812l-3.588-12.233c2.27-3.387,13.5-5.99,13.5-5.99l5.755,2.02,1.643-1.615s2.844.634,5.278,1.429c3.25,1.06,5.008,1.912,5.782,3.716,0,0,1.356,4,.541,12.229a134.333,134.333,0,0,0,.662,17.924l3.829,12.121c-13.518,10.528-32.441.7-32.441.7.607-1.859,2.632-7.567,2.907-9.383-.2-2.318.078-5.892-.9-9.95C320.186,183.991,317.739,174.573,317.411,173.812Z" transform="translate(-313.823 -155.589)" fill="#fff" opacity="0.5"/></g><path d="M393.285,203.792a10.815,10.815,0,0,1,9.414-9.838l-1.037,1.729,1.979-1.176-9.077,11.385Z" transform="translate(-348.629 -169.996)" fill="#005885"/><path d="M393.285,203.792a10.815,10.815,0,0,1,9.414-9.838l-1.037,1.729,1.979-1.176-9.077,11.385Z" transform="translate(-348.629 -169.996)" fill="#fff" opacity="0.8"/><path d="M360.182,194.757l3.121-.095,14.938,5.066-13.615,20.8-13.4-3.345a1.434,1.434,0,0,1-.864-2.092l5.411-9.785a.639.639,0,0,0,0-.623l-.735-1.305a.864.864,0,0,1,0-.864l3.63-6.8A1.85,1.85,0,0,1,360.182,194.757Z" transform="translate(-329.746 -170.306)" fill="#005885"/><path d="M389.5,199.418l8.506-5.464-13.987,20.781-8.135,5.48Z" transform="translate(-341.008 -169.996)" fill="#005885"/><path d="M389.5,199.418l8.506-5.464-13.987,20.781-8.135,5.48Z" transform="translate(-341.008 -169.996)" opacity="0.2"/><g transform="translate(40.947 37.736)"><path d="M392.562,219.82s-3.306-.867-4.032-.3.268,1.105.268,1.105-1.138-.512-1.477.034c-.407.655.637,1.214.637,1.214s-.951-.373-1.226.13c-.286.522.839,1.253.839,1.253s-.735-.113-.762.327,2.325,2.05,3.366,1.941,3.292-3.889,3.643-4.8a1.849,1.849,0,0,0-.352-2.255l-.9,1.35Z" transform="translate(-386.685 -218.47)" fill="#eec1bb"/><g transform="translate(2.055 2.088)"><path d="M390.366,222.317l0,0,2.038.779a.07.07,0,0,0,.079-.047c.016-.037.007-.075-.02-.085l-2.038-.779a.07.07,0,0,0-.079.047A.062.062,0,0,0,390.366,222.317Z" transform="translate(-390.342 -222.185)" opacity="0.2"/></g><g transform="translate(1.269 3.365)"><path d="M388.967,224.59h0l1.878.932a.066.066,0,0,0,.08-.04.065.065,0,0,0-.014-.088l-1.878-.932a.066.066,0,0,0-.08.04A.064.064,0,0,0,388.967,224.59Z" transform="translate(-388.943 -224.459)" opacity="0.2"/></g><g transform="translate(0.891 4.753)"><path d="M388.294,227.06l1.371.741a.076.076,0,0,0,.069-.127l-1.371-.741a.076.076,0,0,0-.069.127Z" transform="translate(-388.27 -226.928)" opacity="0.2"/></g></g><path d="M345.339,154.643l-2.495-2.416-1.27,3.514-5.542-4.417-2.81,3.082,6.961,4.85,1.392-3.08L345.339,159Z" transform="translate(-322.32 -151.323)" fill="#263238"/><path d="M345.55,157.23a35.694,35.694,0,0,1,0,4.357l-3.764-2.824-1.392,3.08-6.689-4.613,6.847,5.965,1.234-3.622,4.2,3.622Z" transform="translate(-322.532 -153.91)" opacity="0.3"/><path d="M346.177,190.157,327,208.631V204.98s17.259-15.81,17.468-15.832A10.348,10.348,0,0,1,346.177,190.157Z" transform="translate(-319.596 -167.891)" opacity="0.3"/><path d="M327.138,186.869l-2.077-8.565-.411,9.942Z" transform="translate(-318.565 -163.141)" opacity="0.3"/></g><path d="M335.2,134.378a1.152,1.152,0,1,0,1.152-1.152A1.152,1.152,0,0,0,335.2,134.378Z" transform="translate(-311.727 -115.087)" fill="#005885"/><g transform="translate(7.237 36.697)"><path d="M310.532,166.247s-2.592,2.524-3.465,11.134c-.626,6.18-2.21,19.507,2.593,21.218s25.747-18.313,25.747-18.313l-3.4-5.837-15.391,8.515s1.569-14.116-1.144-15.406A12.994,12.994,0,0,0,310.532,166.247Z" transform="translate(-306.309 -166.247)" fill="#263238"/><path d="M310.532,166.247s-2.592,2.524-3.465,11.134c-.626,6.18-2.21,19.507,2.593,21.218s25.747-18.313,25.747-18.313l-3.4-5.837-15.391,8.515s1.569-14.116-1.144-15.406A12.994,12.994,0,0,0,310.532,166.247Z" transform="translate(-306.309 -166.247)" fill="#fff" opacity="0.5"/><g transform="translate(26.175 0.683)"><path d="M353.722,174.549s2.02-4.046,2.98-4.224a3.351,3.351,0,0,1,1.731.142s6.53-3.847,6.965-2.835c.235.548-1.215,1.755-4.328,3.531,0,0,1.792.66,1.07,1.71a1.332,1.332,0,0,1,.615,1.916,1.716,1.716,0,0,1-.156,1.9,17.605,17.605,0,0,1-6.427,3.086c-2.078.3-3.289-3.733-3.289-3.733Z" transform="translate(-352.884 -167.462)" fill="#eec1bb"/></g></g></g><g transform="translate(171.169 200.148)"><path d="M354.623,356.644c1.762.829,2.848,2.769,4.673,3.449a4.58,4.58,0,0,0,3.189-.09V333.967H337.566a4.1,4.1,0,0,1,.233-1.665c.68-1.825,2.62-2.911,3.449-4.673,1.224-2.6-.5-5.838-3.031-7.2a10.058,10.058,0,0,0-9.372,0c-2.53,1.363-4.255,4.6-3.031,7.2.829,1.762,2.769,2.848,3.449,4.673a4.1,4.1,0,0,1,.233,1.665H304.58v57.905h57.905V368.718a4.586,4.586,0,0,0-3.189-.09c-1.825.68-2.918,2.6-4.673,3.449-2.34,1.126-5.828-.505-7.2-3.031a10.058,10.058,0,0,1,0-9.372C348.785,357.145,352.023,355.42,354.623,356.644Z" transform="translate(-304.58 -319.248)" fill="#005885"/><path d="M354.623,356.644c1.762.829,2.848,2.769,4.673,3.449a4.58,4.58,0,0,0,3.189-.09V333.967H337.566a4.1,4.1,0,0,1,.233-1.665c.68-1.825,2.62-2.911,3.449-4.673,1.224-2.6-.5-5.838-3.031-7.2a10.058,10.058,0,0,0-9.372,0c-2.53,1.363-4.255,4.6-3.031,7.2.829,1.762,2.769,2.848,3.449,4.673a4.1,4.1,0,0,1,.233,1.665H304.58v57.905h57.905V368.718a4.586,4.586,0,0,0-3.189-.09c-1.825.68-2.918,2.6-4.673,3.449-2.34,1.126-5.828-.505-7.2-3.031a10.058,10.058,0,0,1,0-9.372C348.785,357.145,352.023,355.42,354.623,356.644Z" transform="translate(-304.58 -319.248)" opacity="0.4"/><path d="M359.675,356.644c1.762.829,2.848,2.769,4.673,3.449a4.58,4.58,0,0,0,3.189-.09V333.967H342.618a4.1,4.1,0,0,1,.233-1.665c.68-1.825,2.62-2.911,3.449-4.673,1.224-2.6-.5-5.838-3.031-7.2a10.058,10.058,0,0,0-9.372,0c-2.53,1.363-4.255,4.6-3.031,7.2.829,1.762,2.769,2.848,3.449,4.673a4.1,4.1,0,0,1,.233,1.665H309.632v57.905h57.905V368.718a4.586,4.586,0,0,0-3.189-.09c-1.825.68-2.918,2.6-4.673,3.449-2.34,1.126-5.828-.505-7.2-3.031a10.058,10.058,0,0,1,0-9.372C353.837,357.145,357.075,355.42,359.675,356.644Z" transform="translate(-306.793 -319.248)" fill="#005885"/><path d="M395.56,411.284s2.005,3.593,5.449,3.294,4.165-1.8,4.165-1.8l-.048-4.942-7.683,2.942A2.414,2.414,0,0,1,395.56,411.284Z" transform="translate(-344.431 -358.053)" opacity="0.4"/></g><g transform="translate(219.634 162.22)"><g transform="translate(73.97 35.832)"><path d="M522.442,340.28l19.793-7.605L553.66,321.6c.317-.368,3.63-6.081,3.63-6.081L562.9,327.53s-13.943,14.011-19.05,15.643c-4.128,1.318-18.741,4.9-18.741,4.9Z" transform="translate(-522.442 -315.518)" fill="#005885"/><path d="M544.032,359.906s2.386-9.355,7.721-11.3,12.23,1.106,12.033,1.237-5.974,5.51-6.171,5.575c-.147.049-7.49,2.637-11.29,3.893Z" transform="translate(-531.899 -329.727)" opacity="0.4"/></g><g transform="translate(0 52.946)"><path d="M440.988,345.971a4.1,4.1,0,0,0,.233,1.665c.68,1.825,2.62,2.911,3.449,4.673,1.224,2.6-.5,5.838-3.031,7.2a10.058,10.058,0,0,1-9.372,0c-2.53-1.363-4.255-4.6-3.031-7.2.829-1.762,2.769-2.848,3.449-4.673a4.1,4.1,0,0,0,.233-1.665H407.11v26.016a4.6,4.6,0,0,1-3.237.11c-1.825-.68-2.911-2.62-4.673-3.449-2.6-1.224-5.839.5-7.2,3.031a10.057,10.057,0,0,0,0,9.372c1.363,2.529,4.6,4.255,7.2,3.031,1.762-.829,2.848-2.769,4.673-3.449a4.6,4.6,0,0,1,3.237.11v23.136l57.705.258V346.229Z" transform="translate(-390.819 -345.971)" fill="#263238"/><g opacity="0.4"><path d="M440.988,345.971a4.1,4.1,0,0,0,.233,1.665c.68,1.825,2.62,2.911,3.449,4.673,1.224,2.6-.5,5.838-3.031,7.2a10.058,10.058,0,0,1-9.372,0c-2.53-1.363-4.255-4.6-3.031-7.2.829-1.762,2.769-2.848,3.449-4.673a4.1,4.1,0,0,0,.233-1.665H407.11v26.016a4.6,4.6,0,0,1-3.237.11c-1.825-.68-2.911-2.62-4.673-3.449-2.6-1.224-5.839.5-7.2,3.031a10.057,10.057,0,0,0,0,9.372c1.363,2.529,4.6,4.255,7.2,3.031,1.762-.829,2.848-2.769,4.673-3.449a4.6,4.6,0,0,1,3.237.11v23.136l57.705.258V346.229Z" transform="translate(-390.819 -345.971)"/></g><g transform="translate(2.554)"><path d="M445.533,345.971a4.1,4.1,0,0,0,.233,1.665c.68,1.825,2.62,2.911,3.449,4.673,1.224,2.6-.5,5.838-3.031,7.2a10.058,10.058,0,0,1-9.372,0c-2.53-1.363-4.255-4.6-3.031-7.2.829-1.762,2.769-2.848,3.449-4.673a4.1,4.1,0,0,0,.233-1.665h-25.81v26.016a4.6,4.6,0,0,1-3.237.11c-1.825-.68-2.911-2.62-4.673-3.449-2.6-1.224-5.838.5-7.2,3.031a10.058,10.058,0,0,0,0,9.372c1.363,2.529,4.6,4.255,7.2,3.031,1.762-.829,2.848-2.769,4.673-3.449a4.6,4.6,0,0,1,3.237.11v23.136l57.705.258V346.229Z" transform="translate(-395.364 -345.971)" fill="#263238"/></g></g><g transform="translate(80.229 54.71)"><g transform="translate(0 36.721)"><path d="M556.579,415l9.076-.549c-1.452,8-2.945,13.184-2.31,17.289l-3.659,2.446-3.388-3.331A91.368,91.368,0,0,1,556.579,415Z" transform="translate(-543.438 -414.45)" fill="#e9b376"/><g transform="translate(0 10.792)"><path d="M545.894,433.654l3.3.039c1.6,2.763,2.7,2.112,4.391.163.958-.1,1.2,1,1.277,1.3l1.716,6.543a1.026,1.026,0,0,1-1.017,1.3l-7.916-.093-11.086-.13c-3.022-.035-3.613-3.089-2.365-3.356,5.613-1.171,9.6-2.772,11.345-4.38C545.862,434.75,545.535,434.533,545.894,433.654Z" transform="translate(-533.578 -433.654)" fill="#005885"/><path d="M552.492,436.913a2.907,2.907,0,0,1,2.021,1.336" transform="translate(-541.863 -435.081)" fill="none" stroke="#263238" stroke-linecap="round" stroke-linejoin="round" stroke-miterlimit="10" stroke-width="0.5"/><path d="M549.816,438.878a2.907,2.907,0,0,1,2.021,1.336" transform="translate(-540.691 -435.942)" fill="none" stroke="#263238" stroke-linecap="round" stroke-linejoin="round" stroke-miterlimit="10" stroke-width="0.5"/><path d="M546.5,440.518a2.907,2.907,0,0,1,2.021,1.336" transform="translate(-539.237 -436.661)" fill="none" stroke="#263238" stroke-linecap="round" stroke-linejoin="round" stroke-miterlimit="10" stroke-width="0.5"/><path d="M555.951,448.664a1.03,1.03,0,0,1-.3.036l-7.916-.093-11.086-.13a2.878,2.878,0,0,1-2.858-1.789c.46.009,22.489.438,22.78.344l.117.488A1.022,1.022,0,0,1,555.951,448.664Z" transform="translate(-533.672 -439.363)" fill="#fff" opacity="0.7"/></g></g><path d="M587.452,362.307s-24.788-12.8-29.614-13.166-9.439,2.249-10.362,12.243.923,35.7.923,35.7l13.371.229,1.657-29.776s20.709,15.127,21.323,14.974,8.7-.52,8.7-.52Z" transform="translate(-539.553 -349.109)" fill="#263238"/><path d="M587.452,362.307s-24.788-12.8-29.614-13.166-9.439,2.249-10.362,12.243.923,35.7.923,35.7l13.371.229,1.657-29.776s20.709,15.127,21.323,14.974,8.7-.52,8.7-.52Z" transform="translate(-539.553 -349.109)" fill="#fff" opacity="0.3"/><path d="M566.1,406.673s-10.924,3.826-11.04,12.835,9.518,7.295,9.518,7.295Z" transform="translate(-542.988 -374.323)" opacity="0.4"/></g><g transform="translate(94.211 72.788)"><g transform="translate(40.948 24.33)"><path d="M633.779,440.932,631.321,432c8.59-.93,14.329,1.185,18.322-.7l3.6,2.993-2.376,4.458S644.532,440.9,633.779,440.932Z" transform="translate(-631.321 -427.517)" fill="#e9b376"/><g transform="translate(11.789)"><path d="M654.5,438.048l-.955-3.374c2.337-2.459,1.34-3.389-1.157-4.526-.391-.946.658-1.527.937-1.692l6.153-3.722a1.09,1.09,0,0,1,1.628.647l2.291,8.1,3.208,11.342c.874,3.092-2.06,4.614-2.709,3.422-2.886-5.369-5.718-8.948-7.885-10.247C655.624,437.751,655.5,438.149,654.5,438.048Z" transform="translate(-652.299 -424.57)" fill="#005885"/><path d="M660.415,448.711a3.092,3.092,0,0,1,.753-2.463" transform="translate(-655.841 -434.065)" fill="none" stroke="#263238" stroke-linecap="round" stroke-linejoin="round" stroke-miterlimit="10" stroke-width="0.5"/><path d="M663.225,450.847a3.093,3.093,0,0,1,.753-2.464" transform="translate(-657.072 -435.001)" fill="none" stroke="#263238" stroke-linecap="round" stroke-linejoin="round" stroke-miterlimit="10" stroke-width="0.5"/><path d="M665.9,453.737a3.093,3.093,0,0,1,.753-2.464" transform="translate(-658.242 -436.266)" fill="none" stroke="#263238" stroke-linecap="round" stroke-linejoin="round" stroke-miterlimit="10" stroke-width="0.5"/><path d="M666.3,425.091a1.1,1.1,0,0,1,.126.293l2.291,8.1,3.208,11.342a3.061,3.061,0,0,1-.962,3.453c-.129-.472-6.331-23.06-6.515-23.329l.462-.266A1.087,1.087,0,0,1,666.3,425.091Z" transform="translate(-657.619 -424.574)" fill="#fff" opacity="0.7"/></g></g><path d="M619.542,381.277l1.076,5.4s2.759,10.717-1.108,16.1a15.515,15.515,0,0,1-9.145,6.06l1.121,10.335-1.121.7s-7.13,0-21.726-.667c-13.865-.633-25.784-1.3-28.244-5.6s-3.028-6.4.995-11.531c3.635-4.641,31.317-11.478,32.28-11.755l-.387-2.359-.449-1.67Z" transform="translate(-558.458 -381.277)" fill="#263238"/><path d="M619.542,381.277l1.076,5.4s2.759,10.717-1.108,16.1a15.515,15.515,0,0,1-9.145,6.06l1.121,10.335-1.121.7s-7.13,0-21.726-.667c-13.865-.633-25.784-1.3-28.244-5.6s-3.028-6.4.995-11.531c3.635-4.641,31.317-11.478,32.28-11.755l-.387-2.359-.449-1.67Z" transform="translate(-558.458 -381.277)" fill="#fff" opacity="0.3"/><path d="M626.721,429.739c-.851.222-30.92-.748-30.92-.748s8.888,1.524,15.46,2.079S626.721,429.739,626.721,429.739Z" transform="translate(-574.815 -402.176)" opacity="0.4"/><path d="M621.114,395.012l17.315-3.02S625.948,391.789,621.114,395.012Z" transform="translate(-585.902 -385.969)" opacity="0.4"/></g><g transform="translate(68.147 65.342)"><path d="M529.214,372.256a6.572,6.572,0,0,0-3.594-2.654c-2.15-.43-3.752-1.347-5.372-1.556s-.15,1.434.809,2.15,2.039,1.538,1.384,2.171-8.247,2.559-9.054,3.54.518,1.054.518,1.054-1.831.518-1.824,1.3c0,.2.335.672,1.207.567,1.961-.236,6.05-.944,6.05-.944-.236.036-5.22,1.27-5.943,1.552-.944.369-1.2,1.024-.969,1.565.33.769,6.563-.55,6.864-.421,0,0-3.614.639-3.959,1.662s1.951.745,3.93.115c1.814-.578,5.523-1.236,7.31-2,2.2-.944,3.468-2.073,3.516-4.318A7.636,7.636,0,0,0,529.214,372.256Z" transform="translate(-512.081 -368.027)" fill="#e9b376"/><path d="M538.341,373.737l5.544-2.218,1.915,6-6.5,2.319Z" transform="translate(-523.583 -369.557)" fill="#e9b376"/></g><g transform="translate(101.874)"><g transform="translate(2.636 1.764)"><g transform="translate(0.679)"><g transform="translate(9.237 13.449)"><path d="M603.128,291.656s-1.506-3.4-1.186-10.133c0-.007-.369-.075-.37-.081.041-.941.114-1.819.2-2.584a.094.094,0,0,0,0-.029l-7.338,7.382a29.511,29.511,0,0,1,.854,7.774s-.375,3.235,3.614,2.419C601.812,295.807,603.128,291.656,603.128,291.656Z" transform="translate(-594.43 -278.829)" fill="#e9b376"/><path d="M595.372,295.269l4.689-2.3c-.081,1.649-1.008,3.8-4.421,4.776A15.786,15.786,0,0,0,595.372,295.269Z" transform="translate(-594.843 -285.021)" opacity="0.2"/></g><path d="M593.635,265.993c.726,5.6,1.248,8.741-1.01,12.094-3.4,5.044-10.553,3.859-12.944-1.426-2.151-4.757-2.976-13.113,2.037-16.308A7.789,7.789,0,0,1,593.635,265.993Z" transform="translate(-577.993 -256.744)" fill="#e9b376"/><path d="M594.769,256.271c-2.592-3.034-7.418-.378-9.253,1.592-.274.294,4.69,1.7,4.4,1.649l1.568,1.3c.2-.088.62,1.837.974,3.5a8.594,8.594,0,0,0,2.123,4.085,22.048,22.048,0,0,0,3.438,3.04c1.751-1.314,1.216-4.7,1.44-6.817C599.789,261.465,599.716,255.554,594.769,256.271Z" transform="translate(-581.283 -254.897)" fill="#263238"/><path d="M607.626,276.568a5.3,5.3,0,0,1-2.015,3.552c-1.493,1.138-2.456-.548-2.636-2.322-.161-1.6-.071-3.6,1.714-4.037A2.436,2.436,0,0,1,607.626,276.568Z" transform="translate(-588.912 -263.127)" fill="#e9b376"/><path d="M591.211,276.2c.109.566-.1,1.08-.475,1.148s-.761-.336-.87-.9.1-1.08.475-1.148S591.1,275.636,591.211,276.2Z" transform="translate(-583.181 -263.831)" fill="#263238"/><path d="M581.367,278.3c.109.566-.1,1.08-.475,1.148s-.761-.337-.87-.9.1-1.08.475-1.148S581.258,277.735,581.367,278.3Z" transform="translate(-578.869 -264.75)" fill="#263238"/><path d="M584.293,277.833s-1.251,3.158-1.6,4.414a2.722,2.722,0,0,0,2.219-.029Z" transform="translate(-580.05 -264.943)" fill="#d58745"/><path d="M591.775,271.075a.273.273,0,0,1-.273.014,2.175,2.175,0,0,0-1.957-.066.273.273,0,0,1-.37-.1.267.267,0,0,1,.1-.366,2.7,2.7,0,0,1,2.473.057.268.268,0,0,1,.118.362A.264.264,0,0,1,591.775,271.075Z" transform="translate(-582.875 -261.639)" fill="#263238"/><path d="M590.558,286.975a3.363,3.363,0,0,0,2.124-1.586" transform="translate(-583.497 -268.253)" fill="none" stroke="#263238" stroke-linecap="round" stroke-linejoin="round" stroke-miterlimit="10" stroke-width="0.75"/><path d="M606.794,276.327a1.025,1.025,0,0,0-1.133-.152,1.767,1.767,0,0,0-.811.874,2.814,2.814,0,0,0-.263,1.421" transform="translate(-589.638 -264.172)" fill="none" stroke="#000" stroke-linecap="round" stroke-linejoin="round" stroke-miterlimit="10" stroke-width="0.5" opacity="0.2"/></g><path d="M577.051,274.334a.267.267,0,0,1-.148-.049.271.271,0,0,1-.07-.376,2.662,2.662,0,0,1,2.139-1.2.273.273,0,0,1,.264.279.267.267,0,0,1-.274.261,2.075,2.075,0,0,0-1.685.965A.263.263,0,0,1,577.051,274.334Z" transform="translate(-576.785 -262.701)" fill="#263238"/></g><path d="M588.9,254.9a9.552,9.552,0,0,0-9.408-2.854c-4.795,1.13-7.3,4.638-7.389,7.994a6.783,6.783,0,0,0,.658,3.27.694.694,0,0,0,1.289-.126,4.544,4.544,0,0,1,.188-.511c.019.038.04.075.062.111a.7.7,0,0,0,1.293-.311,3.51,3.51,0,0,1,.074-.643l.01.015a.69.69,0,0,0,1.248-.233,5,5,0,0,1,6.615-3.4l2.073,1.231A8.625,8.625,0,0,0,588.9,254.9Z" transform="translate(-572.095 -251.758)" fill="#263238"/></g><path d="M610.117,390.175l-.327,2.193-9.668,2.911,2.228,1.428,9.569-2.66.394-4.26Z" transform="translate(-482.497 -312.217)" opacity="0.4"/><g transform="translate(84.633 25.829)"><g transform="translate(24.186 1.125)"><path d="M610.478,301.495c-4.341-2.784-11.992-1.46-11.992-1.46L584.452,308.6l9.6,22.556s4,9.593,6.165,15.982c.535,1.583,1.559,3.791,3.216,3.575l26.654-4.819a2.249,2.249,0,0,0,1.772-2.811C629.283,333.787,614.366,303.988,610.478,301.495Z" transform="translate(-584.452 -299.72)" fill="#005885"/><path d="M620.58,325.2a64.862,64.862,0,0,1-11.771,15.052,29.194,29.194,0,0,0-5.132,6.914l-1.88-4.8Z" transform="translate(-592.049 -310.882)" opacity="0.4"/></g><g transform="translate(0 4.824)"><path d="M580.919,310.727l-18.171,22.658-21.333,9.685,2.127,8.83s17.3-4.667,24.249-9S586.2,326.454,586.2,326.454s10-8.022,9.518-14.512S585.732,303.937,580.919,310.727Z" transform="translate(-541.415 -306.303)" fill="#005885"/></g><path d="M594.156,304.394s.675-3.461,1-3.322,3.575,2.089,3.575,2.089l3.633-5.442,2.18,1.443-5.018,10.4Z" transform="translate(-564.516 -297.719)" fill="#005885"/><path d="M588.051,325.207l-4.19-5.751,3.385,9.006,1.648-1.753,11.57-14.626Z" transform="translate(-560.007 -304.01)" opacity="0.4"/><path d="M594.156,305.369a26.322,26.322,0,0,1,3.028,2.127,19.121,19.121,0,0,1,1.266-2.427l3.19,1.213,2.618-6.337-2.577,7.3-3.022-1.461-1.475,2.676Z" transform="translate(-564.516 -298.694)" opacity="0.4"/></g></g><g transform="translate(83.362 68.715)"><g transform="translate(0 0)"><g transform="translate(19.663 24.77)"><path d="M207.151,187.615a4.1,4.1,0,0,0-.233-1.665c-.68-1.825-2.62-2.911-3.449-4.673-1.224-2.6.5-5.838,3.031-7.2a10.058,10.058,0,0,1,9.372,0c2.529,1.363,4.255,4.6,3.031,7.2-.829,1.762-2.769,2.848-3.449,4.673a4.1,4.1,0,0,0-.233,1.665h25.81V161.6a4.6,4.6,0,0,1,3.237-.11c1.825.68,2.911,2.62,4.673,3.449,2.6,1.224,5.838-.5,7.2-3.031a10.058,10.058,0,0,0,0-9.372c-1.363-2.53-4.6-4.255-7.2-3.031-1.762.829-2.848,2.769-4.673,3.449a4.6,4.6,0,0,1-3.237-.11V129.709l-57.705-.258v57.905Z" transform="translate(-183.323 -129.451)" fill="#263238"/><g opacity="0.4"><path d="M207.151,187.615a4.1,4.1,0,0,0-.233-1.665c-.68-1.825-2.62-2.911-3.449-4.673-1.224-2.6.5-5.838,3.031-7.2a10.058,10.058,0,0,1,9.372,0c2.529,1.363,4.255,4.6,3.031,7.2-.829,1.762-2.769,2.848-3.449,4.673a4.1,4.1,0,0,0-.233,1.665h25.81V161.6a4.6,4.6,0,0,1,3.237-.11c1.825.68,2.911,2.62,4.673,3.449,2.6,1.224,5.838-.5,7.2-3.031a10.058,10.058,0,0,0,0-9.372c-1.363-2.53-4.6-4.255-7.2-3.031-1.762.829-2.848,2.769-4.673,3.449a4.6,4.6,0,0,1-3.237-.11V129.709l-57.705-.258v57.905Z" transform="translate(-183.323 -129.451)"/></g><g transform="translate(1.749)"><path d="M210.264,187.615a4.1,4.1,0,0,0-.233-1.665c-.68-1.825-2.62-2.911-3.449-4.673-1.224-2.6.5-5.838,3.031-7.2a10.058,10.058,0,0,1,9.372,0c2.53,1.363,4.255,4.6,3.031,7.2-.829,1.762-2.769,2.848-3.449,4.673a4.1,4.1,0,0,0-.233,1.665h25.81V161.6a4.6,4.6,0,0,1,3.237-.11c1.825.68,2.911,2.62,4.673,3.449,2.6,1.224,5.838-.5,7.2-3.031a10.058,10.058,0,0,0,0-9.372c-1.363-2.53-4.6-4.255-7.2-3.031-1.762.829-2.848,2.769-4.673,3.449a4.6,4.6,0,0,1-3.237-.11V129.709l-57.705-.258v57.905Z" transform="translate(-186.436 -129.451)" fill="#263238"/></g></g><path d="M158.68,177.8s-4.214,14.929-1.518,17.527,12.128.866,11.647.674,2.406-18.146,2.6-17.5S158.68,177.8,158.68,177.8Z" transform="translate(-151.807 -125.857)" fill="#b97964"/><g transform="translate(11.359 186.074)"><g transform="translate(0.743)"><path d="M169.883,417.134l-.013,12.951,6.013.468L178,418.386C175.247,416.4,172.54,415.926,169.883,417.134Z" transform="translate(-169.87 -416.475)" fill="#b97964"/></g><g transform="translate(0.058 10.709)"><path d="M169.283,437.08c-.592,1.709-.631,8.7-.631,8.7l12.746.015c.758-2.529-.415-4.255-1.9-4.484a4.134,4.134,0,0,1-1.938-1.429c0-.08-.783-3.965-1.265-4.151,0,0-.332-.4-.615,0a6.847,6.847,0,0,0-.528,1.716C173.162,434.775,171.212,435.131,169.283,437.08Z" transform="translate(-168.652 -435.531)" fill="#263238"/></g><g transform="translate(0.282 13.52)"><path d="M169.3,441.3a4.257,4.257,0,0,1,4.241.6c.22.167.428-.224.21-.389a4.618,4.618,0,0,0-4.562-.644c-.25.1-.142.535.111.434Z" transform="translate(-169.05 -440.534)" fill="#fff"/></g><g transform="translate(0 19.487)"><path d="M181.315,451.617h0l-12.559-.015a.226.226,0,0,1,0-.451h0l12.559.015a.226.226,0,0,1,0,.451Z" transform="translate(-168.548 -451.151)" fill="#fff"/></g></g><g transform="translate(37.092 184.384)"><g transform="translate(0.951)"><path d="M216.044,414.129l-.015,14.617,5.786.477,2.846-13.682A8.077,8.077,0,0,0,216.044,414.129Z" transform="translate(-216.029 -413.469)" fill="#b97964"/></g><g transform="translate(0.059 12.429)"><path d="M215.072,437.134c-.592,1.709-.631,8.7-.631,8.7l14.644.017a3.09,3.09,0,0,0-2.311-4.258,9.542,9.542,0,0,1-3.425-1.658c0-.08-.783-3.965-1.264-4.151,0,0-.332-.4-.615,0a6.845,6.845,0,0,0-.528,1.716C218.951,434.828,217,435.185,215.072,437.134Z" transform="translate(-214.441 -435.585)" fill="#263238"/></g><g transform="translate(0.283 15.24)"><path d="M215.091,441.356a4.259,4.259,0,0,1,4.241.6c.22.167.428-.224.21-.389a4.619,4.619,0,0,0-4.562-.645c-.25.1-.142.536.111.436Z" transform="translate(-214.839 -440.586)" fill="#fff"/></g><g transform="translate(0 21.207)"><path d="M229.04,451.673h0l-14.5-.017a.226.226,0,0,1,0-.451h0l14.5.017a.226.226,0,0,1,0,.451Z" transform="translate(-214.336 -451.205)" fill="#fff"/></g></g><g transform="translate(8.339 88.288)"><g transform="translate(0 1.28)"><path d="M164.456,348.3l12.814.682c2.875-9.317,5.717-42.725,6.01-52.755.351-11.984,4.642-42.061.848-48.32s-20.956-1.274-20.956-1.274,2.138,36.623,1.284,48.3C163.715,305.058,162.569,334.814,164.456,348.3Z" transform="translate(-163.173 -244.751)" fill="#263238"/></g><g transform="translate(0.252 101.853)"><path d="M178.85,423.993l-.833,4.281-13.887-.451-.509-4.11Z" transform="translate(-163.621 -423.713)" fill="#005885"/></g><g transform="translate(13.344)"><path d="M200.448,347.3l12.7.682c1.547-10.314,7.76-47.877,7.25-55.072-.623-8.789-7.981-46.832-10.717-49.765s-22.768,4.67-22.768,4.67,8.232,32.714,14.724,46.863C202.989,297.619,199.405,334.757,200.448,347.3Z" transform="translate(-186.917 -242.474)" fill="#263238"/></g><g transform="translate(25.982 101.363)"><path d="M224.455,423.932l-.648,3.96-14.118-.905-.284-4.146Z" transform="translate(-209.405 -422.841)" fill="#005885"/></g><path d="M193.112,291.9l-3.73-12.468-6.618-2.16,5.174,4.011,4.161,22.726Z" transform="translate(-171.754 -257.717)" opacity="0.3"/></g><g transform="translate(17.261)"><g transform="translate(18.31 8.668)"><path d="M213.88,106.066c0,.538.236.944.575,1s.651-.4.679-.944-.226-.944-.566-1S213.946,105.547,213.88,106.066Z" transform="translate(-212.617 -102.69)" fill="#263238"/><path d="M213.244,106.671a18.832,18.832,0,0,0,1.274,5.049,3.1,3.1,0,0,1-2.586-.207Z" transform="translate(-211.763 -103.371)" fill="#a24e3f"/><path d="M211.923,102.447a.272.272,0,0,1-.2-.488l0,0a3.1,3.1,0,0,1,2.6-1.152.3.3,0,0,1,.274.328v0h0a.331.331,0,0,1-.349.274h0a2.455,2.455,0,0,0-2.048.944A.3.3,0,0,1,211.923,102.447Z" transform="translate(-211.632 -100.799)" fill="#263238"/></g><path d="M201.166,106.166a7.683,7.683,0,0,1-.261.847,8.363,8.363,0,0,1-3.014,3.946,8.161,8.161,0,0,1-1.1.669,7.732,7.732,0,0,1-9.114-1.425c-3.05-3.027-2.971-6.525-3.318-12.444a8.087,8.087,0,0,1,.616-3.725,8.3,8.3,0,0,1,10.777-4.375h0C201.637,92.026,202.449,100.83,201.166,106.166Z" transform="translate(-181.366 -86.979)" fill="#b97964"/><path d="M202.415,127.153a8.159,8.159,0,0,1-1.1.669,7.776,7.776,0,0,1-6.6.285,8.981,8.981,0,0,1,1.08-2.009A12.1,12.1,0,0,1,202.415,127.153Z" transform="translate(-185.911 -103.173)" opacity="0.2"/><path d="M186.85,129.718c2.971,2.65,10.237,1.674,10.237,1.674s4.535-1.225,3.579-2.614c-2.666-.434-3.963-1.66-4.5-3.234a7.567,7.567,0,0,1-.268-3,14.733,14.733,0,0,1,.225-1.674l-8.984-6.539C188.313,118.648,189.755,126.59,186.85,129.718Z" transform="translate(-182.467 -98.058)" fill="#b97964"/><path d="M195.554,99.177l1.3.477-.645-2.607s1.9-2.849,0-5.321c0,0,5.246-1.567,2.282-4.274-1.1-1.012-2.47,0-6.093-1.546-1.964-.847-8.107-.912-8.411,1.546,0,0-4.427,0-4.9,7.408a14.7,14.7,0,0,0,4.688,11.711s5.347,1.239,7.969-.869S195.554,99.177,195.554,99.177Z" transform="translate(-179.05 -85.374)" fill="#263238"/><path d="M202.232,107.667a3.818,3.818,0,0,0,2,2.628c1.225.513,2.036-1.182,1.855-2.963-.167-1.581-1-3.8-2.311-3.5S201.8,106.072,202.232,107.667Z" transform="translate(-189.147 -93.445)" fill="#b97964"/></g><g transform="translate(0 27.226)"><path d="M160.845,139.176s-2.087.634-3.126,1.015c-2.165.793-3.593,3.2-4.377,5.569-1.914,5.781-5.007,19.468-5.007,19.468l11.225,2.359,5.988-12.9Z" transform="translate(-148.335 -136.166)" fill="#005885"/><path d="M160.845,139.176a12.272,12.272,0,0,0-4.585,1.865,9.765,9.765,0,0,0-2.917,4.718c-1.914,5.781-5.007,19.468-5.007,19.468l11.225,2.359,5.988-12.9Z" transform="translate(-148.335 -136.166)" fill="#fff" opacity="0.5"/><g transform="translate(7.682 2.207)"><path d="M194.017,139.214c-3.311-.356-13.494-2.657-27.184-.664l-3.2,50.618a133.613,133.613,0,0,1-1.624,14.39c13.912,5.974,30.371,4.265,39.677-.756-.108.211-.412-5.312-.89-13.4-.841-14.258-2.218-36.488-3.993-49.359C196.75,139.722,194.347,139.249,194.017,139.214Z" transform="translate(-162.005 -137.747)" fill="#005885"/></g><g transform="translate(7.682 2.207)" opacity="0.5"><path d="M194.017,139.214c-3.311-.356-13.494-2.657-27.184-.664l-3.2,50.618a133.613,133.613,0,0,1-1.624,14.39c13.912,5.974,30.371,4.265,39.677-.756-.108.211-.412-5.312-.89-13.4-.841-14.258-2.218-36.488-3.993-49.359C196.75,139.722,194.347,139.249,194.017,139.214Z" transform="translate(-162.005 -137.747)" fill="#fff"/></g><g transform="translate(21.494)"><path d="M186.582,136.3a4.674,4.674,0,0,1,1.652-2.483l7.624.588,3.574,2.356Z" transform="translate(-186.582 -133.82)" fill="#005885"/><path d="M186.582,136.3a4.674,4.674,0,0,1,1.652-2.483l7.624.588,3.574,2.356Z" transform="translate(-186.582 -133.82)" fill="#fff" opacity="0.5"/></g><path d="M218.336,168.391c1.221,5.7,2.976,16.878,6.289,20.773l-.787-11.311Z" transform="translate(-178.997 -148.963)" opacity="0.2"/><path d="M164.876,178.057l.3-14.619L162.1,177.362Z" transform="translate(-154.366 -146.793)" opacity="0.2"/></g><g transform="translate(37.607 31.372)"><path d="M228.724,172.828c-.428.165,7.828,18.739,11.189,18.905s19.142-7.015,19.142-7.015l-3.54-4.226-11.928.684-6.083-12.95Z" transform="translate(-221.146 -153.037)" fill="#b97964"/><path d="M218.679,141.362c-4.282,2.828-6.4,9.231,5.075,29l12.4-7.57c-2.508-4.626-5.164-7.99-8.117-14.69C222.082,139.534,218.679,141.362,218.679,141.362Z" transform="translate(-215.253 -141.199)" fill="#005885"/><path d="M218.679,141.362c-4.282,2.828-6.4,9.231,5.075,29l12.4-7.57c-2.508-4.626-5.164-7.99-8.117-14.69C222.082,139.534,218.679,141.362,218.679,141.362Z" transform="translate(-215.253 -141.199)" fill="#fff" opacity="0.5"/><path d="M285.387,186.05c0-1.084-.334-2.263-.917-2.3s-3.7,0-3.7,0h0c0-.875,1.641-1.832,1.107-2.429-.7-.779-4.738,2.551-4.993,3.231a8.089,8.089,0,0,1-.75,1.667l2.135,4.9s3.951,2.6,4.869,1.686a2.589,2.589,0,0,0,.834-1.9,4.256,4.256,0,0,0,.834-2.1C284.72,187.967,285.387,187.134,285.387,186.05Z" transform="translate(-241.919 -158.72)" fill="#b97964"/></g></g></g></g></svg>