<svg width="72" height="73" viewBox="0 0 72 73" fill="none" xmlns="http://www.w3.org/2000/svg">
<path d="M64.1808 31.7847C63.9968 31.7824 63.8151 31.8252 63.6515 31.9095C63.4879 31.9938 63.3475 32.1169 63.2426 32.2681L62.6845 32.9668H8.18676L7.62868 32.2681C7.52497 32.1331 7.392 32.0234 7.23977 31.9473C7.08753 31.8712 6.92002 31.8306 6.74983 31.8286C6.53491 31.8257 6.32366 31.8844 6.14106 31.9978C5.95846 32.1112 5.81216 32.2745 5.71948 32.4684C5.62679 32.6624 5.5916 32.8788 5.61805 33.0921C5.64451 33.3054 5.73152 33.5067 5.86878 33.6721L34.5524 69.6216C34.6578 69.7538 34.7916 69.8607 34.944 69.9341C35.0963 70.0075 35.2632 70.0456 35.4323 70.0456C35.6015 70.0456 35.7684 70.0075 35.9207 69.9341C36.0731 69.8607 36.2069 69.7538 36.3123 69.6216L64.9937 33.6721C65.141 33.5123 65.2389 33.3131 65.2754 33.0988C65.312 32.8845 65.2856 32.6643 65.1996 32.4646C65.1137 32.2649 64.9717 32.0945 64.7909 31.9738C64.61 31.8531 64.3981 31.7874 64.1808 31.7847Z" fill="#F0F0F0"/>
<path d="M24.7861 33.2063L34.3437 69.2085C34.6392 70.3247 36.2234 70.3247 36.5188 69.2085L46.0852 33.2063C39.3707 33.2063 30.3713 33.2063 24.7861 33.2063Z" fill="#F0F0F0"/>
<path d="M54.4891 18.3C54.3188 18.3082 54.1526 18.355 54.003 18.4368C53.8534 18.5186 53.7244 18.6334 53.6257 18.7725L44.0769 32.2681C43.9569 32.4366 43.8857 32.635 43.8712 32.8414C43.8566 33.0478 43.8993 33.2542 43.9944 33.438C44.0896 33.6217 44.2336 33.7757 44.4105 33.8829C44.5875 33.9901 44.7906 34.0464 44.9975 34.0456H64.0884C64.2955 34.0468 64.4989 33.9908 64.6762 33.8837C64.8535 33.7767 64.9978 33.6228 65.0932 33.439C65.1886 33.2552 65.2315 33.0486 65.217 32.842C65.2025 32.6354 65.1313 32.4368 65.0112 32.2681L55.4603 18.7725C55.351 18.6186 55.2048 18.4947 55.0351 18.4121C54.8654 18.3295 54.6776 18.291 54.4891 18.3Z" fill="#F0F0F0"/>
<path d="M52.9531 21.6707L54.5438 19.4207H35.4463L37.037 21.6707H52.9531Z" fill="#E1E0E0"/>
<path d="M44.995 32.9207L54.5438 19.4207H51.8457L43.646 31.0134L44.995 32.9207Z" fill="#E1E0E0"/>
<path d="M16.325 18.2912C16.1179 18.2901 15.9146 18.3461 15.7373 18.4532C15.56 18.5602 15.4157 18.7141 15.3203 18.8979C15.2248 19.0817 15.182 19.2883 15.1965 19.4949C15.2109 19.7015 15.2821 19.9001 15.4022 20.0688L24.951 33.5732C25.0549 33.7201 25.1926 33.8399 25.3524 33.9226C25.5122 34.0053 25.6895 34.0485 25.8694 34.0485C26.0493 34.0485 26.2266 34.0053 26.3864 33.9226C26.5462 33.8399 26.6839 33.7201 26.7878 33.5732L36.3366 20.0688C36.4562 19.9007 36.5273 19.7029 36.5422 19.4971C36.557 19.2913 36.5149 19.0854 36.4205 18.9018C36.3262 18.7183 36.1832 18.5643 36.0071 18.4566C35.8311 18.3489 35.6289 18.2917 35.4225 18.2912H16.325Z" fill="#F0F0F0"/>
<path d="M6.74988 31.8286C5.79003 31.8156 5.25581 32.9334 5.86883 33.6721L34.5524 69.6216C35.0029 70.187 35.8619 70.187 36.3123 69.6216L36.5562 69.3139L8.1187 33.6721C7.87631 33.3797 7.79781 32.9847 7.90997 32.6218L7.62874 32.2681C7.41861 31.9946 7.0947 31.8327 6.74988 31.8286Z" fill="#E1E0E0"/>
<path d="M24.7861 33.2063L34.3437 69.2085C34.6392 70.3247 36.2234 70.3247 36.5188 69.2085L36.5562 69.0679L27.036 33.2063L24.7861 33.2063Z" fill="#E1E0E0"/>
<path d="M35.4489 18.2912C35.2419 18.2901 35.0385 18.3461 34.8612 18.4532C34.6839 18.5602 34.5396 18.7141 34.4442 18.8979C34.3487 19.0817 34.3059 19.2883 34.3204 19.4949C34.3348 19.7015 34.406 19.9001 34.5261 20.0688L44.0771 33.5732C44.1811 33.7197 44.3186 33.8391 44.4782 33.9215C44.6378 34.0039 44.8148 34.0469 44.9944 34.0469C45.174 34.0469 45.351 34.0039 45.5106 33.9215C45.6702 33.8391 45.8077 33.7197 45.9117 33.5732L55.4605 20.0688C55.58 19.9009 55.6511 19.7033 55.666 19.4977C55.6809 19.292 55.639 19.0863 55.5449 18.9028C55.4508 18.7194 55.3082 18.5653 55.1325 18.4575C54.9568 18.3496 54.7548 18.2921 54.5486 18.2912H35.4489Z" fill="#F0F0F0"/>
<path d="M46.0852 33.2063L36.5277 69.2085C36.2322 70.3247 34.648 70.3247 34.3525 69.2085L34.3152 69.0679L43.8354 33.2063L46.0852 33.2063Z" fill="#E1E0E0"/>
<path d="M35.4093 18.3C35.2375 18.3069 35.0695 18.353 34.9183 18.4349C34.7671 18.5168 34.6367 18.6323 34.537 18.7725L24.9861 32.2681C24.866 32.4368 24.7948 32.6354 24.7803 32.842C24.7659 33.0486 24.8087 33.2552 24.9041 33.439C24.9996 33.6228 25.1439 33.7767 25.3211 33.8837C25.4984 33.9908 25.7018 34.0468 25.9089 34.0456H45.0086C45.2149 34.0452 45.4172 33.988 45.5932 33.8803C45.7692 33.7726 45.9122 33.6186 46.0066 33.4351C46.1009 33.2515 46.143 33.0456 46.1282 32.8398C46.1134 32.634 46.0423 32.4362 45.9226 32.2681L36.3717 18.7725C36.2632 18.6199 36.1184 18.4967 35.9504 18.4143C35.7823 18.3318 35.5964 18.2925 35.4093 18.3Z" fill="#A12B31"/>
<path d="M16.2503 18.3C16.0784 18.3069 15.9105 18.353 15.7593 18.4349C15.608 18.5168 15.4776 18.6323 15.378 18.7725L5.82704 32.2681C5.70694 32.4368 5.63574 32.6354 5.62128 32.842C5.60681 33.0486 5.64965 33.2552 5.74507 33.439C5.84049 33.6228 5.98479 33.7767 6.16208 33.8837C6.33936 33.9908 6.54275 34.0468 6.74984 34.0456H25.8495C26.0557 34.0448 26.2577 33.9873 26.4334 33.8794C26.6091 33.7716 26.7517 33.6175 26.8458 33.4341C26.9399 33.2506 26.9818 33.0449 26.9669 32.8392C26.952 32.6336 26.8809 32.436 26.7614 32.2681L17.2126 18.7725C17.1042 18.6199 16.9594 18.4967 16.7913 18.4143C16.6233 18.3318 16.4373 18.2925 16.2503 18.3Z" fill="#A12B31"/>
<path d="M65.0288 33.6721L36.3452 69.6216C35.8948 70.187 35.0357 70.187 34.5853 69.6216L34.3414 69.3139L62.779 33.6721C63.0214 33.3797 63.0999 32.9847 62.9877 32.6218L63.269 32.2681C63.4791 31.9946 63.803 31.8326 64.1478 31.8286C65.1076 31.8156 65.6418 32.9334 65.0288 33.6721Z" fill="#E1E0E0"/>
<path d="M54.533 18.3C54.3611 18.3069 54.1932 18.353 54.042 18.4349C53.8908 18.5168 53.7603 18.6323 53.6607 18.7725L44.1098 32.2681C43.9897 32.4368 43.9185 32.6354 43.904 32.842C43.8895 33.0486 43.9324 33.2552 44.0278 33.439C44.1232 33.6228 44.2675 33.7767 44.4448 33.8837C44.6221 33.9908 44.8255 34.0468 45.0326 34.0456H64.1323C64.3386 34.0452 64.5408 33.988 64.7169 33.8803C64.8929 33.7726 65.0359 33.6186 65.1302 33.4351C65.2246 33.2515 65.2667 33.0456 65.2519 32.8398C65.2371 32.634 65.1659 32.4362 65.0463 32.2681L55.4953 18.7725C55.3869 18.6199 55.2421 18.4967 55.074 18.4143C54.906 18.3318 54.72 18.2925 54.533 18.3Z" fill="#A12B31"/>
<path d="M65.206 47.262C65.8223 49.6727 67.3007 51.4478 69.0179 52.1113C69.9816 52.4768 69.9874 53.8382 69.0268 54.2119C67.3102 54.878 65.8204 56.6586 65.2062 59.07C64.9107 60.1863 63.3266 60.1863 63.0311 59.07C62.4148 56.6593 60.9276 54.8843 59.2105 54.2207C58.2484 53.8511 58.2484 52.4898 59.2105 52.1201C60.9271 51.454 62.4081 49.6734 63.0223 47.262C63.1473 46.7697 63.5866 46.4221 64.0944 46.4139C64.6169 46.4041 65.0775 46.7554 65.206 47.262Z" fill="#FFCA28"/>
<path d="M60.7549 51.1472C60.8314 51.5239 61.0949 51.8354 61.4535 51.9733C63.1707 52.6369 64.6579 54.412 65.2742 56.8227C65.3452 57.1067 65.5241 57.3518 65.7729 57.506C65.5451 57.9916 65.3508 58.513 65.2083 59.0726C64.9258 60.2117 63.3068 60.2117 63.0244 59.0726C62.4081 56.6619 60.9209 54.8869 59.2038 54.2233C58.2416 53.8538 58.2416 52.4924 59.2038 52.1227C59.7536 51.9093 60.2742 51.572 60.7549 51.1472Z" fill="#ECB200"/>
<path d="M65.212 10.1443C65.8283 12.555 67.3067 14.3301 69.0239 14.9937C69.9876 15.3592 69.9934 16.7205 69.0328 17.0942C67.3162 17.7603 65.8264 19.5409 65.2122 21.9523C64.9167 23.0686 63.3326 23.0686 63.0371 21.9523C62.4208 19.5416 60.9336 17.7666 59.2165 17.103C58.2543 16.7334 58.2543 15.3721 59.2165 15.0025C60.9331 14.3363 62.4141 12.5558 63.0283 10.1443C63.1533 9.65198 63.5926 9.30444 64.1004 9.29619C64.6229 9.28633 65.0834 9.63768 65.212 10.1443Z" fill="#FFCA28"/>
<path d="M60.7609 14.0295C60.8373 14.4062 61.1008 14.7177 61.4595 14.8556C63.1767 15.5192 64.6639 17.2943 65.2801 19.705C65.3512 19.989 65.5301 20.2341 65.7789 20.3883C65.5511 20.8739 65.3567 21.3953 65.2142 21.9549C64.9318 23.094 63.3128 23.094 63.0304 21.9549C62.4141 19.5442 60.9269 17.7692 59.2098 17.1056C58.2476 16.7361 58.2476 15.3747 59.2098 15.0051C59.7596 14.7916 60.2801 14.4543 60.7609 14.0295Z" fill="#ECB200"/>
<path d="M25.8369 3.394C26.4532 5.80469 27.9316 7.57976 29.6487 8.24332C30.6125 8.60883 30.6182 9.97019 29.6577 10.3439C27.9411 11.01 26.4513 12.7906 25.837 15.202C25.5416 16.3182 23.9574 16.3182 23.662 15.202C23.0457 12.7913 21.5585 11.0162 19.8413 10.3527C18.8792 9.98307 18.8792 8.62174 19.8413 8.25212C21.558 7.58597 23.039 5.80542 23.6532 3.394C23.7782 2.90165 24.2175 2.5541 24.7253 2.54586C25.2478 2.53597 25.7083 2.88734 25.8369 3.394Z" fill="#FFCA28"/>
<path d="M21.3857 7.27914C21.4622 7.65587 21.7257 7.96733 22.0844 8.1053C23.8016 8.76886 25.2887 10.5439 25.905 12.9546C25.9761 13.2387 26.155 13.4837 26.4038 13.638C26.176 14.1236 25.9817 14.645 25.8391 15.2046C25.5567 16.3437 23.9377 16.3437 23.6553 15.2046C23.039 12.7939 21.5518 11.0188 19.8346 10.3553C18.8725 9.98578 18.8725 8.62434 19.8346 8.25472C20.3844 8.04127 20.905 7.704 21.3857 7.27914Z" fill="#ECB200"/>
<path d="M8.97386 56.2624C9.59016 58.673 11.0685 60.4481 12.7857 61.1117C13.7494 61.4772 13.7552 62.8385 12.7946 63.2122C11.078 63.8783 9.58824 65.6589 8.97401 68.0704C8.67854 69.1866 7.09441 69.1866 6.79894 68.0704C6.18265 65.6596 4.69547 63.8846 2.9783 63.221C2.01619 62.8514 2.01619 61.4901 2.9783 61.1205C4.69494 60.4543 6.17592 58.6738 6.79016 56.2624C6.91512 55.77 7.35446 55.4225 7.86224 55.4142C8.38474 55.4044 8.84529 55.7557 8.97386 56.2624Z" fill="#FFCA28"/>
<path d="M4.5227 60.1475C4.59919 60.5242 4.86267 60.8357 5.22136 60.9737C6.93852 61.6372 8.4257 63.4123 9.042 65.823C9.11304 66.107 9.29191 66.3521 9.54072 66.5063C9.31292 66.9919 9.11861 67.5134 8.97609 68.073C8.69365 69.2121 7.07466 69.2121 6.79223 68.073C6.17594 65.6623 4.68876 63.8872 2.9716 63.2236C2.00947 62.8541 2.00947 61.4927 2.9716 61.1231C3.5214 60.9096 4.04198 60.5724 4.5227 60.1475Z" fill="#ECB200"/>
</svg>
