<svg width="225" height="48" viewBox="0 0 225 48" fill="none" xmlns="http://www.w3.org/2000/svg">
<path d="M74.1135 20.1547H75.3287C75.3511 20.9636 75.5751 21.6016 76.0006 22.0802C76.4262 22.5587 76.9862 22.7979 77.6806 22.7979C78.4253 22.7979 79.0189 22.5587 79.4557 22.0859C79.8925 21.613 80.1109 20.9693 80.1109 20.1547C80.1109 18.9698 79.2149 18.0811 77.4174 17.4773C77.2774 17.4317 77.171 17.3918 77.0982 17.369C76.1574 17.0386 75.4855 16.6228 75.0711 16.1215C74.6567 15.6145 74.4495 14.9593 74.4495 14.1447C74.4495 13.1079 74.7687 12.2534 75.4071 11.5926C76.0454 10.9318 76.8686 10.5957 77.8766 10.5957C78.8845 10.5957 79.6013 10.8976 80.1669 11.5015C80.7325 12.1053 81.0461 12.9541 81.1077 14.0422H79.9205C79.8533 13.3301 79.6461 12.7832 79.2933 12.4015C78.9405 12.0142 78.4702 11.8262 77.8766 11.8262C77.2438 11.8262 76.723 12.037 76.3198 12.4585C75.9166 12.8801 75.715 13.4155 75.715 14.065C75.715 14.4068 75.7767 14.6973 75.8942 14.9479C76.0118 15.1986 76.2078 15.4208 76.471 15.6259C76.7398 15.8309 77.255 16.0531 78.0222 16.3037C78.4645 16.4462 78.7949 16.5658 79.0245 16.6512C79.8589 16.9816 80.4581 17.3975 80.8221 17.9102C81.1917 18.4229 81.3709 19.0894 81.3709 19.9211C81.3709 21.1858 81.0293 22.2055 80.3517 22.9802C79.6741 23.755 78.7725 24.1423 77.6526 24.1423C76.6054 24.1423 75.7598 23.7778 75.1103 23.0429C74.4607 22.3137 74.1247 21.351 74.1079 20.1547H74.1135Z" fill="#5C5B5F"/>
<path d="M82.978 10.8407H84.238V19.0894C84.238 19.7274 84.2604 20.206 84.3108 20.525C84.3612 20.844 84.4452 21.1231 84.5628 21.3681C84.7924 21.8637 85.1284 22.2511 85.5707 22.5302C86.0131 22.8093 86.5115 22.9517 87.0715 22.9517C88.0402 22.9517 88.757 22.6156 89.2218 21.9434C89.6866 21.2712 89.9162 20.2287 89.9162 18.8217V10.8407H91.1593V19.135C91.1593 20.8269 90.8289 22.0859 90.1682 22.9119C89.5074 23.7436 88.505 24.1537 87.1611 24.1537C85.7219 24.1537 84.6692 23.7493 83.9916 22.9347C83.314 22.12 82.978 20.8554 82.978 19.1293V10.835V10.8407Z" fill="#5C5B5F"/>
<path d="M93.2197 10.8406H95.9412C96.7196 10.8406 97.3468 10.8805 97.8172 10.9659C98.2875 11.0514 98.6795 11.1824 98.9875 11.3704C99.5531 11.7179 99.9843 12.1679 100.287 12.7205C100.589 13.273 100.74 13.894 100.74 14.589C100.74 15.2441 100.606 15.8536 100.331 16.4119C100.057 16.9702 99.6763 17.4145 99.1891 17.7449C98.8475 17.9785 98.4443 18.1494 97.9684 18.2519C97.498 18.3545 96.8932 18.4114 96.1596 18.4114H94.4797V23.8916H93.2197V10.852V10.8406ZM94.4797 12.1223V17.0955H96.3388C97.3692 17.0955 98.1364 16.8961 98.6291 16.4974C99.1219 16.0986 99.3683 15.4777 99.3683 14.6459C99.3683 13.8142 99.1219 13.1363 98.6235 12.7319C98.1252 12.3274 97.33 12.128 96.2324 12.128H94.4797V12.1223Z" fill="#5C5B5F"/>
<path d="M103.731 16.691H109.118V17.9785H103.731V22.6156H109.118V23.8802H102.465V10.8406H109.118V12.1223H103.731V16.691Z" fill="#5C5B5F"/>
<path d="M112.579 12.1223V23.8802H111.335V10.8406H114.779C115.535 10.8406 116.146 10.8975 116.605 11.0172C117.064 11.1311 117.484 11.3248 117.859 11.5925C118.369 11.9571 118.772 12.4413 119.069 13.0509C119.366 13.6604 119.511 14.3041 119.511 14.9877C119.511 15.996 119.214 16.8676 118.626 17.5968C118.038 18.326 117.299 18.7247 116.414 18.7874L119.511 23.8859H118.016L114.214 17.5968H115.429C116.241 17.5968 116.896 17.3575 117.406 16.8733C117.915 16.3891 118.167 15.7682 118.167 15.0105C118.167 14.5491 118.089 14.1332 117.932 13.7573C117.775 13.3813 117.546 13.0509 117.243 12.7717C116.991 12.5382 116.689 12.373 116.33 12.2761C115.978 12.1793 115.345 12.128 114.432 12.128H112.573L112.579 12.1223Z" fill="#5C5B5F"/>
<path d="M122.781 23.8802H121.521V10.8406H122.781V23.8802Z" fill="#5C5B5F"/>
<path d="M133.678 22.3194L133.527 10.835H134.776V23.8746H133.264L126.231 12.3731L126.371 23.8746H125.127V10.835H126.639L133.673 22.3194H133.678Z" fill="#5C5B5F"/>
<path d="M139.928 23.8802H138.668V12.1223H136.103V10.8406H142.487V12.1223H139.922V23.8802H139.928Z" fill="#5C5B5F"/>
<path d="M145.063 16.691H150.45V17.9785H145.063V22.6156H150.45V23.8802H143.792V10.8406H150.45V12.1223H145.063V16.691Z" fill="#5C5B5F"/>
<path d="M161.359 22.3194L161.207 10.835H162.456V23.8746H160.944L153.911 12.3731L154.051 23.8746H152.808V10.835H154.32L161.353 22.3194H161.359Z" fill="#5C5B5F"/>
<path d="M164.869 10.8407H168.515C169.517 10.8407 170.363 10.9432 171.046 11.1426C171.729 11.3477 172.334 11.6724 172.854 12.1167C173.588 12.7433 174.159 13.5124 174.562 14.4182C174.966 15.3239 175.167 16.298 175.167 17.3291C175.167 18.4799 174.943 19.5337 174.501 20.4794C174.053 21.425 173.426 22.1998 172.608 22.7922C172.07 23.1796 171.483 23.4587 170.855 23.6239C170.228 23.7892 169.259 23.8746 167.949 23.8746H164.869V10.835V10.8407ZM166.112 12.0882V22.6555H168.727C170.357 22.6555 171.617 22.1884 172.496 21.2598C173.375 20.3313 173.818 19.0097 173.818 17.3007C173.818 16.4462 173.666 15.66 173.37 14.9366C173.073 14.2131 172.642 13.6092 172.087 13.1193C171.673 12.749 171.203 12.487 170.687 12.3275C170.172 12.168 169.422 12.0882 168.436 12.0882H166.123H166.112Z" fill="#5C5B5F"/>
<path d="M178.164 16.691H183.551V17.9785H178.164V22.6156H183.551V23.8802H176.898V10.8406H183.551V12.1223H178.164V16.691Z" fill="#5C5B5F"/>
<path d="M194.459 22.3194L194.307 10.835H195.556V23.8746H194.044L187.011 12.3731L187.151 23.8746H185.908V10.835H187.42L194.453 22.3194H194.459Z" fill="#5C5B5F"/>
<path d="M208.195 14.2189C207.618 13.4042 206.974 12.8118 206.269 12.4301C205.557 12.0484 204.751 11.8547 203.838 11.8547C202.41 11.8547 201.195 12.3902 200.182 13.4669C199.168 14.5436 198.664 15.8196 198.664 17.3007C198.664 18.8787 199.168 20.206 200.176 21.2884C201.184 22.3708 202.405 22.912 203.844 22.912C204.729 22.912 205.529 22.724 206.246 22.348C206.963 21.972 207.585 21.408 208.111 20.6618H209.606C209.018 21.7726 208.234 22.6328 207.249 23.2367C206.263 23.8405 205.154 24.1481 203.928 24.1481C202.041 24.1481 200.473 23.493 199.213 22.1885C197.953 20.8839 197.326 19.249 197.326 17.2894C197.326 16.3779 197.494 15.512 197.835 14.6917C198.177 13.8714 198.675 13.1365 199.33 12.4814C199.941 11.8604 200.624 11.3876 201.386 11.0686C202.147 10.7496 202.97 10.5901 203.855 10.5901C205.126 10.5901 206.274 10.9091 207.293 11.5414C208.312 12.1738 209.119 13.0681 209.712 14.2302H208.201L208.195 14.2189Z" fill="#5C5B5F"/>
<path d="M212.776 23.8802H211.516V10.8406H212.776V23.8802Z" fill="#5C5B5F"/>
<path d="M214.853 23.8802H213.526L218.499 10.8406H220.01L224.966 23.8802H223.617L222.082 19.79H216.376L214.842 23.8802H214.853ZM221.651 18.6165L219.221 12.0711L216.824 18.6165H221.651Z" fill="#5C5B5F"/>
<path d="M74.1021 29.0642H75.978C76.4932 29.0642 76.93 29.1155 77.2827 29.2237C77.6355 29.332 77.9435 29.4972 78.2123 29.7307C78.5875 30.0554 78.8843 30.4542 79.0915 30.9213C79.2987 31.3941 79.4051 31.8954 79.4051 32.4309C79.4051 33.0291 79.2875 33.5703 79.0635 34.0659C78.8339 34.5558 78.5091 34.9545 78.0891 35.2679C77.8091 35.4672 77.5123 35.6154 77.1875 35.7008C76.8628 35.7863 76.3644 35.8318 75.6924 35.8318H74.1077V29.0699L74.1021 29.0642ZM74.7404 29.7079V35.1881H76.0844C76.9244 35.1881 77.5683 34.9489 78.0219 34.4646C78.4755 33.9804 78.6995 33.2968 78.6995 32.4138C78.6995 31.9695 78.6211 31.565 78.4699 31.1891C78.3131 30.8131 78.0947 30.4998 77.8091 30.2491C77.5963 30.0554 77.3555 29.9187 77.0867 29.839C76.8236 29.7592 76.4372 29.7136 75.9276 29.7136H74.7348L74.7404 29.7079Z" fill="#5C5B5F"/>
<path d="M80.9452 32.0949H83.7171V32.7614H80.9452V35.1654H83.7171V35.8205H80.29V29.0586H83.7171V29.7194H80.9452V32.0892V32.0949Z" fill="#5C5B5F"/>
<path d="M88.225 32.0949H90.9969V32.7614H88.225V35.1654H90.9969V35.8205H87.5698V29.0586H90.9969V29.7194H88.225V32.0892V32.0949Z" fill="#5C5B5F"/>
<path d="M97.4924 30.8132C97.1956 30.3917 96.8652 30.0841 96.5012 29.8847C96.1373 29.6853 95.7173 29.5885 95.2525 29.5885C94.5189 29.5885 93.8917 29.8676 93.371 30.4259C92.8502 30.9841 92.587 31.6449 92.587 32.414C92.587 33.2286 92.8446 33.9179 93.3654 34.4819C93.8805 35.0402 94.5133 35.3193 95.2525 35.3193C95.7061 35.3193 96.1205 35.2224 96.49 35.0288C96.8596 34.8351 97.1788 34.5445 97.4532 34.1572H98.226C97.9236 34.7325 97.5204 35.1769 97.0108 35.4902C96.5012 35.8035 95.9357 35.963 95.3029 35.963C94.3341 35.963 93.5221 35.6269 92.8782 34.9433C92.2286 34.2654 91.9038 33.4166 91.9038 32.4026C91.9038 31.9298 91.9934 31.4798 92.167 31.0582C92.3406 30.6366 92.5982 30.2493 92.9398 29.9132C93.2534 29.5885 93.6061 29.3492 93.9981 29.184C94.3901 29.0188 94.8101 28.9333 95.2693 28.9333C95.9245 28.9333 96.5124 29.0986 97.0388 29.4233C97.5652 29.7537 97.9796 30.2151 98.282 30.8189H97.5036L97.4924 30.8132Z" fill="#5C5B5F"/>
<path d="M98.8701 32.4026C98.8701 31.9298 98.9597 31.4854 99.1333 31.0582C99.3125 30.631 99.5645 30.2493 99.9005 29.9132C100.225 29.5885 100.578 29.3435 100.97 29.1783C101.356 29.0131 101.776 28.9333 102.23 28.9333C102.684 28.9333 103.12 29.0131 103.512 29.184C103.904 29.3549 104.268 29.5942 104.593 29.9246C104.929 30.2607 105.181 30.6423 105.349 31.0582C105.517 31.4741 105.601 31.9241 105.601 32.4083C105.601 32.8925 105.528 33.3312 105.383 33.7299C105.237 34.1287 105.019 34.4933 104.733 34.8237C104.397 35.1997 104.016 35.4845 103.596 35.6782C103.171 35.8719 102.712 35.963 102.219 35.963C101.272 35.963 100.472 35.6212 99.8333 34.9376C99.1893 34.254 98.8701 33.4109 98.8701 32.4026ZM99.5477 32.414C99.5477 33.24 99.8109 33.9293 100.332 34.4876C100.852 35.0459 101.496 35.325 102.264 35.325C103.031 35.325 103.647 35.0459 104.162 34.4819C104.677 33.9179 104.935 33.2229 104.935 32.4026C104.935 31.6336 104.672 30.9728 104.14 30.4202C103.608 29.8619 102.969 29.5885 102.219 29.5885C101.916 29.5885 101.62 29.6397 101.34 29.748C101.06 29.8562 100.796 30.01 100.556 30.2208C100.242 30.4942 99.9957 30.8246 99.8165 31.2177C99.6373 31.6108 99.5477 32.0152 99.5477 32.4254V32.414Z" fill="#5C5B5F"/>
<path d="M110.893 35.0172L110.815 29.0642H111.459V35.8261H110.68L107.057 29.8617L107.13 35.8261H106.492V29.0642H107.27L110.893 35.0172Z" fill="#5C5B5F"/>
<path d="M112.366 32.4026C112.366 31.9298 112.455 31.4854 112.629 31.0582C112.808 30.631 113.06 30.2493 113.396 29.9132C113.721 29.5885 114.074 29.3435 114.466 29.1783C114.858 29.0131 115.272 28.9333 115.726 28.9333C116.179 28.9333 116.616 29.0131 117.008 29.184C117.4 29.3492 117.764 29.5942 118.089 29.9246C118.425 30.2607 118.677 30.6423 118.845 31.0582C119.013 31.4741 119.097 31.9241 119.097 32.4083C119.097 32.8925 119.024 33.3312 118.878 33.7299C118.733 34.1287 118.514 34.4933 118.229 34.8237C117.893 35.1997 117.512 35.4845 117.092 35.6782C116.666 35.8719 116.207 35.963 115.714 35.963C114.768 35.963 113.967 35.6212 113.329 34.9376C112.685 34.254 112.366 33.4109 112.366 32.4026ZM113.043 32.414C113.043 33.24 113.306 33.9293 113.827 34.4876C114.348 35.0459 114.992 35.325 115.765 35.325C116.538 35.325 117.148 35.0459 117.663 34.4819C118.178 33.9179 118.436 33.2229 118.436 32.4026C118.436 31.6336 118.173 30.9728 117.641 30.4202C117.109 29.8619 116.47 29.5885 115.72 29.5885C115.418 29.5885 115.121 29.6397 114.841 29.748C114.561 29.8562 114.298 30.01 114.057 30.2208C113.743 30.4942 113.497 30.8246 113.318 31.2177C113.138 31.6108 113.049 32.0152 113.049 32.4254L113.043 32.414Z" fill="#5C5B5F"/>
<path d="M120.043 35.8261V29.0642H121.001L123.285 34.9432L125.559 29.0642H126.516V35.8261H125.895V29.856L123.576 35.8261H122.994L120.676 29.856V35.8261H120.049H120.043Z" fill="#5C5B5F"/>
<path d="M127.855 28.4092H127.44L128.387 26.7856H129.076L127.855 28.4092ZM128.32 35.8262H127.67V29.0643H128.32V35.8262Z" fill="#5C5B5F"/>
<path d="M129.383 35.8261H128.7L131.259 29.0642H132.038L134.591 35.8261H133.897L133.107 33.707H130.173L129.383 35.8261ZM132.883 33.0974L131.634 29.7022L130.403 33.0974H132.883Z" fill="#5C5B5F"/>
<path d="M137.632 29.0642H139.032C139.435 29.0642 139.754 29.087 139.995 29.1269C140.236 29.1724 140.438 29.2408 140.6 29.3376C140.891 29.5199 141.115 29.7478 141.266 30.0383C141.423 30.3232 141.502 30.6479 141.502 31.0068C141.502 31.3657 141.429 31.6619 141.289 31.9524C141.149 32.2429 140.953 32.4708 140.701 32.6417C140.527 32.7613 140.314 32.8525 140.074 32.9038C139.833 32.955 139.519 32.9835 139.144 32.9835H138.276V35.8261H137.626V29.0642H137.632ZM138.282 29.725V32.2999H139.239C139.771 32.2999 140.163 32.1974 140.415 31.9866C140.667 31.7815 140.796 31.4568 140.796 31.0239C140.796 30.5909 140.667 30.2434 140.415 30.0326C140.158 29.8219 139.749 29.7193 139.183 29.7193H138.282V29.725Z" fill="#5C5B5F"/>
<path d="M142.056 32.4026C142.056 31.9298 142.145 31.4854 142.319 31.0582C142.498 30.631 142.75 30.2493 143.086 29.9132C143.411 29.5885 143.764 29.3435 144.156 29.1783C144.542 29.0131 144.962 28.9333 145.416 28.9333C145.869 28.9333 146.306 29.0131 146.698 29.184C147.09 29.3549 147.454 29.5942 147.779 29.9246C148.115 30.2607 148.367 30.6423 148.535 31.0582C148.703 31.4741 148.787 31.9241 148.787 32.4083C148.787 32.8925 148.714 33.3312 148.568 33.7299C148.423 34.1287 148.204 34.4933 147.919 34.8237C147.583 35.1997 147.202 35.4845 146.782 35.6782C146.362 35.8719 145.897 35.963 145.404 35.963C144.458 35.963 143.657 35.6212 143.019 34.9376C142.375 34.254 142.056 33.4109 142.056 32.4026ZM142.733 32.414C142.733 33.24 142.996 33.9293 143.517 34.4876C144.038 35.0459 144.688 35.325 145.455 35.325C146.222 35.325 146.838 35.0459 147.353 34.4819C147.868 33.9179 148.126 33.2229 148.126 32.4026C148.126 31.6336 147.863 30.9728 147.331 30.4202C146.799 29.8619 146.16 29.5885 145.41 29.5885C145.108 29.5885 144.811 29.6397 144.531 29.748C144.251 29.8562 143.988 30.01 143.747 30.2208C143.433 30.4942 143.187 30.8246 143.008 31.2177C142.828 31.6108 142.739 32.0152 142.739 32.4254L142.733 32.414Z" fill="#5C5B5F"/>
<path d="M149.621 29.0642H151.021C151.424 29.0642 151.743 29.087 151.984 29.1269C152.225 29.1724 152.426 29.2408 152.589 29.3376C152.88 29.5199 153.098 29.7478 153.255 30.0383C153.412 30.3232 153.49 30.6479 153.49 31.0068C153.49 31.3657 153.418 31.6619 153.278 31.9524C153.138 32.2429 152.942 32.4708 152.69 32.6417C152.516 32.7613 152.303 32.8525 152.062 32.9038C151.822 32.955 151.508 32.9835 151.133 32.9835H150.265V35.8261H149.615V29.0642H149.621ZM150.27 29.725V32.2999H151.228C151.76 32.2999 152.152 32.1974 152.404 31.9866C152.656 31.7815 152.785 31.4568 152.785 31.0239C152.785 30.5909 152.656 30.2434 152.404 30.0326C152.146 29.8219 151.738 29.7193 151.172 29.7193H150.27V29.725Z" fill="#5C5B5F"/>
<path d="M154.28 29.0642H154.93V33.3424C154.93 33.6728 154.941 33.9235 154.969 34.083C154.997 34.2425 155.036 34.3906 155.098 34.5216C155.215 34.778 155.389 34.9773 155.619 35.1254C155.848 35.2679 156.106 35.3419 156.391 35.3419C156.89 35.3419 157.259 35.1653 157.495 34.8178C157.735 34.4703 157.853 33.9291 157.853 33.2V29.0642H158.491V33.3652C158.491 34.2425 158.323 34.8919 157.982 35.3248C157.64 35.7521 157.125 35.9686 156.436 35.9686C155.697 35.9686 155.154 35.7578 154.807 35.3362C154.459 34.9147 154.286 34.2596 154.286 33.3652V29.0642H154.28Z" fill="#5C5B5F"/>
<path d="M162.596 35.8261H159.622V29.0642H160.277V35.171H162.596V35.8261Z" fill="#5C5B5F"/>
<path d="M163.29 35.8261H162.607L165.166 29.0642H165.944L168.498 35.8261H167.804L167.014 33.707H164.08L163.29 35.8261ZM166.79 33.0974L165.541 29.7022L164.309 33.0974H166.79Z" fill="#5C5B5F"/>
<path d="M169.54 29.7251V35.8205H168.901V29.0586H170.671C171.063 29.0586 171.376 29.0871 171.612 29.1497C171.847 29.2124 172.065 29.3092 172.256 29.4517C172.519 29.6396 172.726 29.8903 172.877 30.2093C173.028 30.5226 173.107 30.8587 173.107 31.2119C173.107 31.736 172.956 32.1861 172.653 32.562C172.351 32.938 171.97 33.1431 171.511 33.1773L173.107 35.8205H172.334L170.374 32.562H171.001C171.416 32.562 171.757 32.4367 172.02 32.1861C172.284 31.9354 172.412 31.6107 172.412 31.2176C172.412 30.9784 172.373 30.7619 172.295 30.5682C172.216 30.3745 172.093 30.2036 171.936 30.0555C171.808 29.9359 171.651 29.8504 171.466 29.7992C171.281 29.7479 170.957 29.7251 170.492 29.7251H169.534H169.54Z" fill="#5C5B5F"/>
<path d="M178.684 33.3368V35.8205H178.046V33.3254L175.94 29.0586H176.685L178.371 32.5677L180.073 29.0586H180.795L178.69 33.3368H178.684Z" fill="#5C5B5F"/>
<path d="M183.489 33.8893H184.116C184.127 34.3052 184.245 34.6413 184.463 34.8863C184.682 35.1369 184.973 35.2566 185.326 35.2566C185.706 35.2566 186.014 35.1312 186.238 34.8863C186.462 34.6413 186.574 34.3052 186.574 33.8837C186.574 33.2684 186.109 32.807 185.186 32.4937C185.113 32.4709 185.057 32.4481 185.023 32.4367C184.542 32.2658 184.189 32.0493 183.976 31.7873C183.763 31.5252 183.657 31.1834 183.657 30.7619C183.657 30.2207 183.819 29.7821 184.15 29.4403C184.48 29.0985 184.9 28.9219 185.421 28.9219C185.941 28.9219 186.311 29.0757 186.597 29.389C186.888 29.7023 187.05 30.141 187.084 30.7106H186.473C186.44 30.3403 186.333 30.0555 186.154 29.8561C185.975 29.6567 185.729 29.5542 185.426 29.5542C185.102 29.5542 184.833 29.6624 184.626 29.8789C184.418 30.0954 184.318 30.3745 184.318 30.7106C184.318 30.8872 184.346 31.041 184.407 31.1664C184.469 31.2974 184.57 31.4113 184.704 31.5195C184.844 31.6221 185.107 31.7417 185.499 31.8727C185.723 31.9468 185.897 32.0095 186.014 32.055C186.445 32.2259 186.753 32.4424 186.944 32.7102C187.134 32.9722 187.229 33.3254 187.229 33.7526C187.229 34.4078 187.056 34.9375 186.709 35.3363C186.361 35.7351 185.897 35.9401 185.32 35.9401C184.782 35.9401 184.346 35.7522 184.01 35.3705C183.674 34.9888 183.5 34.4932 183.494 33.8723L183.489 33.8893Z" fill="#5C5B5F"/>
<path d="M187.817 32.4026C187.817 31.9298 187.907 31.4854 188.081 31.0582C188.26 30.631 188.512 30.2493 188.848 29.9132C189.173 29.5885 189.525 29.3435 189.917 29.1783C190.304 29.0131 190.724 28.9333 191.177 28.9333C191.631 28.9333 192.068 29.0131 192.46 29.184C192.852 29.3549 193.216 29.5942 193.54 29.9246C193.876 30.2607 194.128 30.6423 194.296 31.0582C194.464 31.4741 194.548 31.9241 194.548 32.4083C194.548 32.8925 194.476 33.3312 194.33 33.7299C194.184 34.1287 193.966 34.4933 193.68 34.8237C193.344 35.1997 192.964 35.4845 192.544 35.6782C192.118 35.8719 191.659 35.963 191.166 35.963C190.22 35.963 189.419 35.6212 188.781 34.9376C188.137 34.254 187.817 33.4109 187.817 32.4026ZM188.495 32.414C188.495 33.24 188.758 33.9293 189.279 34.4876C189.8 35.0459 190.444 35.325 191.216 35.325C191.989 35.325 192.6 35.0459 193.115 34.4819C193.63 33.9179 193.888 33.2229 193.888 32.4026C193.888 31.6336 193.624 30.9728 193.092 30.4202C192.56 29.8619 191.922 29.5885 191.172 29.5885C190.869 29.5885 190.572 29.6397 190.293 29.748C190.013 29.8562 189.749 30.01 189.509 30.2208C189.195 30.4942 188.949 30.8246 188.769 31.2177C188.59 31.6108 188.501 32.0152 188.501 32.4254L188.495 32.414Z" fill="#5C5B5F"/>
<path d="M198.429 35.8261H195.456V29.0642H196.105V35.171H198.423V35.8261H198.429Z" fill="#5C5B5F"/>
<path d="M199.919 35.8261H199.269V29.0642H199.919V35.8261Z" fill="#5C5B5F"/>
<path d="M201.145 29.0642H203.02C203.536 29.0642 203.972 29.1155 204.325 29.2237C204.678 29.332 204.986 29.4972 205.255 29.7307C205.63 30.0554 205.927 30.4542 206.134 30.9213C206.341 31.3941 206.448 31.8954 206.448 32.4309C206.448 33.0291 206.33 33.5703 206.106 34.0659C205.876 34.5558 205.552 34.9545 205.132 35.2679C204.852 35.4672 204.555 35.6154 204.23 35.7008C203.905 35.7863 203.407 35.8318 202.735 35.8318H201.15V29.0699L201.145 29.0642ZM201.783 29.7079V35.1881H203.127C203.967 35.1881 204.611 34.9489 205.064 34.4646C205.518 33.9804 205.742 33.2968 205.742 32.4138C205.742 31.9695 205.664 31.565 205.512 31.1891C205.356 30.8131 205.137 30.4998 204.852 30.2491C204.639 30.0554 204.398 29.9187 204.129 29.839C203.866 29.7592 203.474 29.7136 202.97 29.7136H201.777L201.783 29.7079Z" fill="#5C5B5F"/>
<path d="M207.181 35.8261H206.498L209.057 29.0642H209.836L212.389 35.8261H211.695L210.905 33.707H207.971L207.181 35.8261ZM210.681 33.0974L209.432 29.7022L208.2 33.0974H210.681Z" fill="#5C5B5F"/>
<path d="M213.425 29.7251V35.8205H212.787V29.0586H214.556C214.948 29.0586 215.262 29.0871 215.497 29.1497C215.732 29.2124 215.951 29.3092 216.141 29.4517C216.404 29.6396 216.611 29.8903 216.762 30.2093C216.914 30.5226 216.992 30.8587 216.992 31.2119C216.992 31.736 216.841 32.1861 216.538 32.562C216.236 32.938 215.855 33.1431 215.396 33.1773L216.992 35.8205H216.219L214.259 32.562H214.887C215.301 32.562 215.643 32.4367 215.906 32.1861C216.169 31.9354 216.298 31.6107 216.298 31.2176C216.298 30.9784 216.258 30.7619 216.18 30.5682C216.102 30.3745 215.978 30.2036 215.822 30.0555C215.693 29.9359 215.536 29.8504 215.351 29.7992C215.167 29.7479 214.842 29.7251 214.377 29.7251H213.419H213.425Z" fill="#5C5B5F"/>
<path d="M218.678 35.8261H218.028V29.0642H218.678V35.8261Z" fill="#5C5B5F"/>
<path d="M219.747 35.8261H219.064L221.623 29.0642H222.401L224.955 35.8261H224.261L223.471 33.707H220.537L219.747 35.8261ZM223.247 33.0974L221.998 29.7022L220.766 33.0974H223.247Z" fill="#5C5B5F"/>
<path d="M73.4189 25.7944H225" stroke="#5C5B5F" stroke-width="1.21" stroke-miterlimit="10"/>
<path d="M27.803 17.3292C32.6076 12.4415 38.9914 9.75267 45.784 9.75267C52.5765 9.75267 58.9603 12.4415 63.7649 17.3292C65.1257 18.7135 66.3184 20.2288 67.3208 21.8524C62.0234 9.01781 49.5582 0 35.0155 0C15.6738 0 0 15.9506 0 35.6212H20.3497C20.3497 35.4503 20.3497 35.2851 20.3553 35.1142C20.4841 28.3921 23.1104 22.0916 27.7974 17.3235L27.803 17.3292Z" fill="#F6C300"/>
<path d="M45.7841 12.1509C39.6187 12.1509 33.8286 14.5947 29.4719 19.0267C27.9096 20.6161 26.6048 22.3878 25.5688 24.3018C28.0888 22.1599 31.331 20.8668 34.8589 20.8668C42.8554 20.8668 49.3624 27.4863 49.3624 35.6211H68.8609C68.8609 29.3491 66.4586 23.4587 62.1019 19.0267C57.7453 14.5947 51.9495 12.1509 45.7897 12.1509H45.7841Z" fill="#00549E"/>
<path d="M22.7131 35.6211C22.7131 35.473 22.7131 35.3249 22.7131 35.1768C22.7131 35.3249 22.7017 35.473 22.7017 35.6211H22.7131Z" fill="#E0291F"/>
<path d="M47.016 35.6326C47.016 42.4629 41.573 48 34.8588 48C28.1447 48 22.7017 42.4629 22.7017 35.6326C22.7017 28.8023 28.1447 23.2651 34.8588 23.2651C41.573 23.2651 47.016 28.8023 47.016 35.6326Z" fill="#DA220B"/>
</svg>
