<svg width="72" height="73" viewBox="0 0 72 73" fill="none" xmlns="http://www.w3.org/2000/svg">
<path d="M68.625 63.2955C59.625 63.2955 52.2297 56.8572 48.1448 49.7958H23.8552C19.7703 56.8572 12.375 63.2955 3.375 63.2955H68.625Z" fill="#F3F3F3"/>
<path d="M33.6379 49.7957C33.1229 55.1655 30.7653 59.8072 27.2109 63.2956H47.0391C43.4847 59.8072 41.1271 55.1655 40.6121 49.7957H33.6379Z" fill="#E9E9E9"/>
<path d="M47.272 49.7957C47.272 61.0457 19.8833 62.4233 9.822 62.4233C7.68995 62.9906 5.78295 63.2957 3.39038 63.2957H68.6096C59.6096 63.2957 52.2292 56.857 48.1443 49.7957H47.272Z" fill="#E9E9E9"/>
<path d="M58.5 31.7957C58.5 44.2221 48.4264 54.2956 36 54.2956C23.5736 54.2956 13.5 44.2221 13.5 31.7957C13.5 19.3692 23.5736 9.29565 36 9.29565C48.4264 9.29565 58.5 19.3692 58.5 31.7957Z" fill="#A12B31"/>
<path d="M51.8269 15.8259L36.6548 30.998C35.5904 32.0615 37.1856 33.6567 38.25 32.5933L53.3474 17.4958C52.8688 16.9141 52.3614 16.3568 51.8269 15.8259Z" fill="#82151A"/>
<path d="M50.6294 14.7119C54.2416 18.8102 56.2394 24.0827 56.25 29.5457C56.25 41.9721 46.1764 52.0457 33.75 52.0457C28.3837 52.0426 23.1951 50.1216 19.1206 46.6294C23.384 51.4917 29.5333 54.2846 36 54.2957C48.4264 54.2957 58.5 44.2221 58.5 31.7957C58.4968 25.225 55.6215 18.9841 50.6294 14.7119Z" fill="#82151A"/>
<path d="M57.6756 2.54863C57.4053 2.56968 57.1517 2.68765 56.9614 2.88081L51.3974 8.44491C51.1478 8.6959 51.0309 9.04968 51.0818 9.39994L51.8707 14.9723C51.9413 15.4676 52.3305 15.8568 52.8257 15.9274L58.3981 16.7163C58.7484 16.7672 59.1022 16.6503 59.3532 16.4007L64.9173 10.8283C65.5753 10.169 65.1929 9.04129 64.2695 8.91827L59.5774 8.30373L58.8715 3.51196C58.788 2.92645 58.2655 2.50552 57.6756 2.54863Z" fill="#FFCA28"/>
<path d="M37.125 37.4207L28.125 47.5457H33.75C33.75 49.7249 33.4355 51.7936 32.8821 53.7441L41.0361 53.7288C41.1307 53.7072 41.2211 53.6748 41.3152 53.6519C40.7951 51.9555 40.5 50.7816 40.5 48.6707H47.25L37.125 37.4207Z" fill="#82151A"/>
<path d="M51.75 31.7957C51.75 40.4941 44.6985 47.5457 36 47.5457C27.3015 47.5457 20.25 40.4941 20.25 31.7957C20.25 23.0972 27.3015 16.0457 36 16.0457C44.6985 16.0457 51.75 23.0972 51.75 31.7957Z" fill="#F3F3F3"/>
<path d="M45.9558 19.6052C48.2452 22.4125 49.4969 25.9232 49.5 29.5457C49.5 38.2441 42.4485 45.2957 33.75 45.2957C30.1204 45.2917 26.6035 44.0343 23.7942 41.7361C26.7827 45.4089 31.265 47.5423 36 47.5457C44.6985 47.5457 51.75 40.4941 51.75 31.7957C51.7458 27.0686 49.6187 22.5933 45.9558 19.6052Z" fill="#E9E9E9"/>
<path d="M37.125 37.4207L29.4214 46.0867C31.4833 47.0419 33.7276 47.5396 36 47.5457C38.84 47.5397 41.7861 46.7662 44.2224 45.3066L37.125 37.4207Z" fill="#E9E9E9"/>
<path d="M45 31.7957C45 36.7662 40.9706 40.7957 36 40.7957C31.0294 40.7957 27 36.7662 27 31.7957C27 26.8251 31.0294 22.7957 36 22.7957C40.9706 22.7957 45 26.8251 45 31.7957Z" fill="#A12B31"/>
<path d="M47.0566 20.5962L36.6548 30.998C35.5904 32.0615 37.1856 33.6567 38.25 32.5933L48.5464 22.2969C48.0912 21.695 47.5933 21.1267 47.0566 20.5962Z" fill="#E9E9E9"/>
<path d="M41.1174 24.3931C42.1767 25.9028 42.7466 27.7014 42.75 29.5457C42.75 34.5162 38.7206 38.5457 33.75 38.5457C31.9215 38.5454 30.1365 37.9882 28.6326 36.9482C30.3137 39.3558 33.0636 40.7919 36 40.7957C40.9706 40.7957 45 36.7662 45 31.7957C44.9997 28.8403 43.5485 26.0735 41.1174 24.3931Z" fill="#82151A"/>
<path d="M9 70.0455C22.0477 70.0455 32.625 60.5933 32.625 47.5455L27 47.5455L36 37.4205L45 47.5455L39.375 47.5455C39.375 60.5933 49.9523 70.0455 63 70.0455H9Z" fill="#FFCA28"/>
<path d="M37.9534 39.6179C37.9534 63.2957 33.75 69.8515 9 70.0456H63C49.9523 70.0456 39.375 60.5934 39.375 47.5457H45L37.9534 39.6179Z" fill="#ECB200"/>
<path d="M42.2864 25.3665L36.6548 30.998C35.5904 32.0615 37.1856 33.6567 38.25 32.5933L43.697 27.1462C43.3038 26.4958 42.8299 25.8978 42.2864 25.3665Z" fill="#82151A"/>
<path d="M59.5569 8.16187L52.1411 15.5557C52.3184 15.7564 52.5615 15.8873 52.8267 15.9248L54.7009 16.1907L62.2595 8.65185L59.5767 8.30029L59.5569 8.16187Z" fill="#ECB200"/>
<path d="M60.4109 6.29243C60.119 6.3014 59.8421 6.4235 59.6386 6.63292L35.2033 30.9979C34.1388 32.0593 35.7333 33.6538 36.7978 32.5924L61.233 8.22741C61.9775 7.51089 61.4434 6.2539 60.4109 6.29243Z" fill="#F3F3F3"/>
</svg>
