<svg width="16" height="21" viewBox="0 0 16 21" fill="none" xmlns="http://www.w3.org/2000/svg">
<path d="M0 17.5845V15.5845H2V8.58453C2 7.2012 2.41667 5.97203 3.25 4.89703C4.08333 3.82203 5.16667 3.11787 6.5 2.78453V2.08453C6.5 1.66787 6.64583 1.3137 6.9375 1.02203C7.22917 0.730367 7.58333 0.584534 8 0.584534C8.41667 0.584534 8.77083 0.730367 9.0625 1.02203C9.35417 1.3137 9.5 1.66787 9.5 2.08453V2.78453C10.8333 3.11787 11.9167 3.82203 12.75 4.89703C13.5833 5.97203 14 7.2012 14 8.58453V15.5845H16V17.5845H0ZM8 20.5845C7.45 20.5845 6.97917 20.3887 6.5875 19.997C6.19583 19.6054 6 19.1345 6 18.5845H10C10 19.1345 9.80417 19.6054 9.4125 19.997C9.02083 20.3887 8.55 20.5845 8 20.5845ZM4 15.5845H12V8.58453C12 7.48453 11.6083 6.54287 10.825 5.75953C10.0417 4.9762 9.1 4.58453 8 4.58453C6.9 4.58453 5.95833 4.9762 5.175 5.75953C4.39167 6.54287 4 7.48453 4 8.58453V15.5845Z" fill="#1C1B1F"/>
</svg>
