<svg width="14" height="14" viewBox="0 0 14 14" fill="none" xmlns="http://www.w3.org/2000/svg">
<path d="M7.00016 10.333C7.92238 10.333 8.7085 10.008 9.3585 9.35801C10.0085 8.70801 10.3335 7.9219 10.3335 6.99967C10.3335 6.07745 10.0085 5.29134 9.3585 4.64134C8.7085 3.99134 7.92238 3.66634 7.00016 3.66634C6.07794 3.66634 5.29183 3.99134 4.64183 4.64134C3.99183 5.29134 3.66683 6.07745 3.66683 6.99967C3.66683 7.9219 3.99183 8.70801 4.64183 9.35801C5.29183 10.008 6.07794 10.333 7.00016 10.333ZM7.00016 13.6663C6.07794 13.6663 5.21127 13.4913 4.40016 13.1413C3.58905 12.7913 2.8835 12.3163 2.2835 11.7163C1.6835 11.1163 1.2085 10.4108 0.858496 9.59967C0.508496 8.78856 0.333496 7.9219 0.333496 6.99967C0.333496 6.07745 0.508496 5.21079 0.858496 4.39967C1.2085 3.58856 1.6835 2.88301 2.2835 2.28301C2.8835 1.68301 3.58905 1.20801 4.40016 0.858008C5.21127 0.508008 6.07794 0.333008 7.00016 0.333008C7.92238 0.333008 8.78905 0.508008 9.60016 0.858008C10.4113 1.20801 11.1168 1.68301 11.7168 2.28301C12.3168 2.88301 12.7918 3.58856 13.1418 4.39967C13.4918 5.21079 13.6668 6.07745 13.6668 6.99967C13.6668 7.9219 13.4918 8.78856 13.1418 9.59967C12.7918 10.4108 12.3168 11.1163 11.7168 11.7163C11.1168 12.3163 10.4113 12.7913 9.60016 13.1413C8.78905 13.4913 7.92238 13.6663 7.00016 13.6663ZM7.00016 12.333C8.48905 12.333 9.75016 11.8163 10.7835 10.783C11.8168 9.74967 12.3335 8.48856 12.3335 6.99967C12.3335 5.51079 11.8168 4.24967 10.7835 3.21634C9.75016 2.18301 8.48905 1.66634 7.00016 1.66634C5.51127 1.66634 4.25016 2.18301 3.21683 3.21634C2.1835 4.24967 1.66683 5.51079 1.66683 6.99967C1.66683 8.48856 2.1835 9.74967 3.21683 10.783C4.25016 11.8163 5.51127 12.333 7.00016 12.333Z" fill="#A12B31"/>
</svg>
