<svg width="72" height="73" viewBox="0 0 72 73" fill="none" xmlns="http://www.w3.org/2000/svg">
<g clip-path="url(#clip0_574_8699)">
<path d="M54.0615 21.1873C54.9212 22.5671 54.2807 23.17 53.9429 24.3228V26.7507C54.0547 27.2297 54.2206 27.7627 54.4878 28.3899C56.9333 34.1307 59.5714 29.7637 59.625 36.2957C59.5715 42.8276 56.9333 38.4606 54.4878 44.2014C54.2206 44.8286 54.0546 45.3616 53.9429 45.8406V48.2686C54.2808 49.4213 54.9213 50.0242 54.0615 51.4041C60.9778 48.1332 66.8715 42.9716 70.875 36.2957C66.8715 29.6197 60.9778 24.4581 54.0615 21.1873Z" fill="#EAEAEA"/>
<path d="M17.8528 21.2268C10.9737 24.4998 5.11185 29.6474 1.125 36.2956C5.11185 42.9439 10.9737 48.0915 17.8528 51.3645C16.5613 49.4859 17.7915 49.0087 18.011 47.2468V46.2317C17.9483 45.6001 17.7724 44.8475 17.3826 43.8872C15.0359 38.1056 12.3214 42.4258 12.375 36.2956C12.3214 30.1655 15.0359 34.4857 17.3826 28.7041C17.7724 27.7438 17.9483 26.9913 18.011 26.3596V25.3445C17.7916 23.5826 16.5613 23.1054 17.8528 21.2268Z" fill="#EAEAEA"/>
<path d="M17.3827 43.8866C19.7293 49.6681 14.7633 48.4391 19.1529 52.8862C23.5424 57.3333 22.3934 52.3671 28.1576 54.8027C33.9217 57.2382 29.5376 59.8665 35.7988 59.9197C42.06 59.9728 37.7217 57.2705 43.5267 54.9334C49.3318 52.5962 48.0978 57.5421 52.5629 53.1703C57.0281 48.7986 52.0417 49.9429 54.4872 44.2021C56.9326 38.4613 59.5716 42.8276 59.6251 36.2957C59.5715 29.7637 56.9326 34.13 54.4872 28.3892C52.0417 22.6484 57.0281 23.7927 52.5629 19.421C48.0978 15.0492 49.3318 19.9951 43.5267 17.6579C37.7217 15.3208 42.06 12.6183 35.7988 12.6716C29.5376 12.7246 33.9217 15.3531 28.1576 17.7886C22.3934 20.2242 23.5424 15.258 19.1529 19.7051C14.7633 24.1522 19.7293 22.9232 17.3827 28.7048C15.036 34.4863 12.3225 30.1655 12.376 36.2957C12.3225 42.4258 15.036 38.105 17.3827 43.8866Z" fill="#A12B31"/>
<path d="M66.5486 30.4817C64.96 33.4713 62.5268 35.9603 59.5173 38.0249C59.0035 41.9872 56.6713 39.0756 54.4878 44.2014C54.2206 44.8286 54.0546 45.3616 53.9429 45.8406V48.2686C54.2808 49.4213 54.9213 50.0242 54.0615 51.4041C60.9778 48.1332 66.8715 42.9716 70.875 36.2957C69.617 34.1979 68.153 32.2687 66.5486 30.4817Z" fill="#D9D9D9"/>
<path d="M17.8901 47.8401C15.7176 47.911 13.7802 47.9326 12.0125 47.9302C13.8588 49.2283 15.8032 50.3893 17.8528 51.3645C16.7193 49.7157 17.5269 49.1459 17.8901 47.8401Z" fill="#D9D9D9"/>
<path d="M35.7978 12.6707C34.8502 12.6787 34.1678 12.752 33.6357 12.8684C36.3712 13.5208 34.195 15.7136 39.0256 17.6585C41.8488 18.7951 43.002 18.2113 43.9607 17.8123C43.8144 17.7596 43.6819 17.7214 43.5256 17.6585C37.7206 15.3213 42.0591 12.6174 35.7978 12.6707Z" fill="#82151A"/>
<path d="M36 25.0457C29.7868 25.0457 24.75 30.0824 24.75 36.2957C24.75 42.5089 29.7868 47.5457 36 47.5457C42.2132 47.5457 47.25 42.5089 47.25 36.2957C47.2454 34.3982 46.7608 32.5327 45.8416 30.8728C45.1331 31.468 44.2378 31.7947 43.3125 31.7957C41.1379 31.7957 39.375 30.0328 39.375 27.8582C39.3765 27.1248 39.5827 26.4064 39.9705 25.7839C38.7023 25.3004 37.3572 25.0502 36 25.0457Z" fill="#EAEAEA"/>
<path d="M49.6582 17.5464C48.7232 17.4726 48.1127 18.1805 46.7776 18.3022C47.1503 18.5806 47.5672 18.9352 48.063 19.4207C52.5281 23.7924 47.5424 22.6491 49.9878 28.3899C52.4333 34.1307 55.0714 29.7637 55.125 36.2957C55.0715 42.8276 52.4333 38.4606 49.9878 44.2014C47.5423 49.9422 52.5281 48.7989 48.063 53.1707C47.5672 53.6561 47.1503 54.0107 46.7776 54.2891C49.0708 54.4981 49.2232 56.4406 52.563 53.1707C57.0281 48.7989 52.0423 49.9422 54.4878 44.2014C56.9333 38.4606 59.5715 42.8276 59.625 36.2957C59.5714 29.7637 56.9333 34.1307 54.4878 28.3899C52.0424 22.6491 57.0281 23.7924 52.563 19.4207C51.1676 18.0545 50.3292 17.5993 49.6582 17.5464Z" fill="#82151A"/>
<path d="M39.0256 54.9329C34.195 56.8777 36.3712 59.0705 33.6357 59.7229C34.1678 59.8393 34.8502 59.9126 35.7978 59.9207C42.0591 59.9737 37.7206 57.27 43.5256 54.9329C43.6819 54.87 43.8144 54.8317 43.9607 54.7791C43.3716 54.5339 42.7135 54.2214 41.6338 54.2781C40.9563 54.3138 40.1141 54.4946 39.0256 54.9329Z" fill="#82151A"/>
<path d="M45.8416 30.8728C45.1331 31.468 44.2378 31.7947 43.3125 31.7957C43.2267 31.7941 43.1409 31.7897 43.0554 31.7825C39.6021 39.6172 32.3083 42.4908 27.3999 43.5466C29.5371 46.0819 32.684 47.5452 36 47.5457C42.2132 47.5457 47.25 42.5089 47.25 36.2957C47.2454 34.3982 46.7608 32.5327 45.8416 30.8728Z" fill="#D9D9D9"/>
<path d="M37.125 8.17065C37.125 8.79197 36.6213 9.29565 36 9.29565C35.3787 9.29565 34.875 8.79197 34.875 8.17065C34.875 7.54933 35.3787 7.04565 36 7.04565C36.6213 7.04565 37.125 7.54933 37.125 8.17065Z" fill="#A12B31"/>
<path d="M37.125 3.67065C37.125 4.29197 36.6213 4.79565 36 4.79565C35.3787 4.79565 34.875 4.29197 34.875 3.67065C34.875 3.04933 35.3787 2.54565 36 2.54565C36.6213 2.54565 37.125 3.04933 37.125 3.67065Z" fill="#A12B31"/>
<path d="M58.5 14.9207C58.5 15.542 57.9963 16.0457 57.375 16.0457C56.7537 16.0457 56.25 15.542 56.25 14.9207C56.25 14.2993 56.7537 13.7957 57.375 13.7957C57.9963 13.7957 58.5 14.2993 58.5 14.9207Z" fill="#A12B31"/>
<path d="M61.875 11.5457C61.875 12.167 61.3713 12.6707 60.75 12.6707C60.1287 12.6707 59.625 12.167 59.625 11.5457C59.625 10.9243 60.1287 10.4207 60.75 10.4207C61.3713 10.4207 61.875 10.9243 61.875 11.5457Z" fill="#A12B31"/>
<path d="M65.25 8.17065C65.25 8.79198 64.7463 9.29566 64.125 9.29565C63.5037 9.29565 63 8.79197 63 8.17065C63 7.54933 63.5037 7.04566 64.125 7.04565C64.7463 7.04565 65.25 7.54933 65.25 8.17065Z" fill="#A12B31"/>
<path d="M68.625 4.79565C68.625 5.41697 68.1213 5.92065 67.5 5.92065C66.8787 5.92065 66.375 5.41697 66.375 4.79565C66.375 4.17433 66.8787 3.67066 67.5 3.67065C68.1213 3.67066 68.625 4.17433 68.625 4.79565Z" fill="#A12B31"/>
<path d="M13.5 14.9207C13.5 15.542 14.0037 16.0457 14.625 16.0457C15.2463 16.0457 15.75 15.542 15.75 14.9207C15.75 14.2993 15.2463 13.7957 14.625 13.7957C14.0037 13.7957 13.5 14.2993 13.5 14.9207Z" fill="#A12B31"/>
<path d="M10.125 11.5457C10.125 12.167 10.6287 12.6707 11.25 12.6707C11.8713 12.6707 12.375 12.167 12.375 11.5457C12.375 10.9243 11.8713 10.4207 11.25 10.4207C10.6287 10.4207 10.125 10.9243 10.125 11.5457Z" fill="#A12B31"/>
<path d="M6.75 8.17065C6.75 8.79197 7.25368 9.29565 7.875 9.29565C8.49632 9.29565 9 8.79197 9 8.17065C9 7.54933 8.49632 7.04565 7.875 7.04565C7.25368 7.04565 6.75 7.54933 6.75 8.17065Z" fill="#A12B31"/>
<path d="M3.375 4.79565C3.375 5.41697 3.87868 5.92065 4.5 5.92065C5.12132 5.92065 5.625 5.41697 5.625 4.79565C5.625 4.17433 5.12132 3.67065 4.5 3.67065C3.87868 3.67065 3.375 4.17433 3.375 4.79565Z" fill="#A12B31"/>
<path d="M37.125 64.4207C37.125 63.7993 36.6213 63.2957 36 63.2957C35.3787 63.2957 34.875 63.7993 34.875 64.4207C34.875 65.042 35.3787 65.5457 36 65.5457C36.6213 65.5457 37.125 65.042 37.125 64.4207Z" fill="#A12B31"/>
<path d="M37.125 68.9207C37.125 68.2993 36.6213 67.7957 36 67.7957C35.3787 67.7957 34.875 68.2993 34.875 68.9207C34.875 69.542 35.3787 70.0457 36 70.0457C36.6213 70.0457 37.125 69.542 37.125 68.9207Z" fill="#A12B31"/>
<path d="M58.5 57.6707C58.5 57.0493 57.9963 56.5457 57.375 56.5457C56.7537 56.5457 56.25 57.0493 56.25 57.6707C56.25 58.292 56.7537 58.7957 57.375 58.7957C57.9963 58.7957 58.5 58.292 58.5 57.6707Z" fill="#A12B31"/>
<path d="M61.875 61.0457C61.875 60.4243 61.3713 59.9207 60.75 59.9207C60.1287 59.9207 59.625 60.4243 59.625 61.0457C59.625 61.667 60.1287 62.1707 60.75 62.1707C61.3713 62.1707 61.875 61.667 61.875 61.0457Z" fill="#A12B31"/>
<path d="M65.25 64.4207C65.25 63.7993 64.7463 63.2957 64.125 63.2957C63.5037 63.2957 63 63.7993 63 64.4207C63 65.042 63.5037 65.5457 64.125 65.5457C64.7463 65.5457 65.25 65.042 65.25 64.4207Z" fill="#A12B31"/>
<path d="M68.625 67.7957C68.625 67.1743 68.1213 66.6707 67.5 66.6707C66.8787 66.6707 66.375 67.1743 66.375 67.7957C66.375 68.417 66.8787 68.9207 67.5 68.9207C68.1213 68.9207 68.625 68.417 68.625 67.7957Z" fill="#A12B31"/>
<path d="M13.5 57.6707C13.5 57.0493 14.0037 56.5457 14.625 56.5457C15.2463 56.5457 15.75 57.0493 15.75 57.6707C15.75 58.292 15.2463 58.7957 14.625 58.7957C14.0037 58.7957 13.5 58.292 13.5 57.6707Z" fill="#A12B31"/>
<path d="M10.125 61.0457C10.125 60.4243 10.6287 59.9207 11.25 59.9207C11.8713 59.9207 12.375 60.4243 12.375 61.0457C12.375 61.667 11.8713 62.1707 11.25 62.1707C10.6287 62.1707 10.125 61.667 10.125 61.0457Z" fill="#A12B31"/>
<path d="M6.75 64.4207C6.75 63.7993 7.25368 63.2957 7.875 63.2957C8.49632 63.2957 9 63.7993 9 64.4207C9 65.042 8.49632 65.5457 7.875 65.5457C7.25368 65.5457 6.75 65.042 6.75 64.4207Z" fill="#A12B31"/>
<path d="M3.375 67.7957C3.375 67.1743 3.87868 66.6707 4.5 66.6707C5.12132 66.6707 5.625 67.1743 5.625 67.7957C5.625 68.417 5.12132 68.9207 4.5 68.9207C3.87868 68.9207 3.375 68.417 3.375 67.7957Z" fill="#A12B31"/>
<path d="M72 71.1707C72 70.5493 71.4963 70.0457 70.875 70.0457C70.2537 70.0457 69.75 70.5493 69.75 71.1707C69.75 71.792 70.2537 72.2957 70.875 72.2957C71.4963 72.2957 72 71.792 72 71.1707Z" fill="#A12B31"/>
<path d="M2.25 71.1707C2.25 70.5493 1.74632 70.0457 1.125 70.0457C0.50368 70.0457 7.65354e-07 70.5493 0 71.1707C7.65354e-07 71.792 0.50368 72.2957 1.125 72.2957C1.74632 72.2957 2.25 71.792 2.25 71.1707Z" fill="#A12B31"/>
<path d="M72 1.42065C72 0.799334 71.4963 0.295655 70.875 0.295654C70.2537 0.295655 69.75 0.799334 69.75 1.42065C69.75 2.04197 70.2537 2.54565 70.875 2.54565C71.4963 2.54565 72 2.04197 72 1.42065Z" fill="#A12B31"/>
<path d="M2.25 1.42065C2.25 0.799334 1.74632 0.295654 1.125 0.295654C0.50368 0.295654 0 0.799334 0 1.42065C0 2.04197 0.50368 2.54565 1.125 2.54565C1.74632 2.54565 2.25 2.04197 2.25 1.42065Z" fill="#A12B31"/>
<path d="M34.8462 28.5148C34.7847 28.5181 34.7236 28.5264 34.6635 28.5397C32.3652 28.9368 30.3517 30.3334 29.1825 32.3515C28.435 33.6526 30.3866 34.7737 31.134 33.4726C31.9699 32.03 33.4026 31.0409 35.0455 30.757C36.5401 30.624 36.3408 28.3817 34.8462 28.5148Z" fill="#D9D9D9"/>
<path d="M30.375 37.4208C30.375 38.0421 29.8713 38.5458 29.25 38.5458C28.6287 38.5458 28.125 38.0421 28.125 37.4208C28.125 36.7995 28.6287 36.2958 29.25 36.2958C29.8713 36.2958 30.375 36.7995 30.375 37.4208Z" fill="#D9D9D9"/>
</g>
<defs>
<clipPath id="clip0_574_8699">
<rect width="72" height="72" fill="white" transform="translate(0 0.295654)"/>
</clipPath>
</defs>
</svg>
